solid OpenSCAD_Model
  facet normal -1 0 0
    outer loop
      vertex -35 -20 0
      vertex -35 -20 10
      vertex -35 20 0
    endloop
  endfacet
  facet normal -1 0 0
    outer loop
      vertex -35 20 0
      vertex -35 -20 10
      vertex -35 20 10
    endloop
  endfacet
  facet normal 0 -1 0
    outer loop
      vertex -35 -20 10
      vertex -35 -20 0
      vertex 35 -20 0
    endloop
  endfacet
  facet normal 0 -1 0
    outer loop
      vertex 35 -20 10
      vertex -35 -20 10
      vertex 35 -20 0
    endloop
  endfacet
  facet normal 0 0 -1
    outer loop
      vertex -19.5225 16.0416 0
      vertex -35 20 0
      vertex 35 20 0
    endloop
  endfacet
  facet normal 0 0 -1
    outer loop
      vertex -35 -20 0
      vertex -35 20 0
      vertex -30.6184 -12.4177 0
    endloop
  endfacet
  facet normal 0 0 -1
    outer loop
      vertex -35 -20 0
      vertex -30.6184 -12.4177 0
      vertex -30.6184 -14.249 0
    endloop
  endfacet
  facet normal 0 0 -1
    outer loop
      vertex -35 -20 0
      vertex -30.6184 -14.249 0
      vertex -29.6283 -15.7895 0
    endloop
  endfacet
  facet normal 0 0 -1
    outer loop
      vertex -35 -20 0
      vertex -29.6283 -15.7895 0
      vertex -27.9625 -16.5503 0
    endloop
  endfacet
  facet normal 0 0 -1
    outer loop
      vertex -35 -20 0
      vertex -27.9625 -16.5503 0
      vertex 35 -20 0
    endloop
  endfacet
  facet normal 0 0 -1
    outer loop
      vertex -27.9625 -16.5503 0
      vertex -26.1499 -16.2896 0
      vertex 35 -20 0
    endloop
  endfacet
  facet normal 0 0 -1
    outer loop
      vertex -24.25 -13.3333 0
      vertex 35 -20 0
      vertex -24.7659 -15.0904 0
    endloop
  endfacet
  facet normal 0 0 -1
    outer loop
      vertex -24.7659 -11.5763 0
      vertex 35 -20 0
      vertex -24.25 -13.3333 0
    endloop
  endfacet
  facet normal 0 0 -1
    outer loop
      vertex -26.1499 -10.377 0
      vertex -35 20 0
      vertex -24.7659 -11.5763 0
    endloop
  endfacet
  facet normal 0 0 -1
    outer loop
      vertex -22.5842 12.3928 0
      vertex -35 20 0
      vertex -22.5842 14.2739 0
    endloop
  endfacet
  facet normal 0 0 -1
    outer loop
      vertex -27.9625 -10.1164 0
      vertex -35 20 0
      vertex -26.1499 -10.377 0
    endloop
  endfacet
  facet normal 0 0 -1
    outer loop
      vertex -29.6283 -10.8771 0
      vertex -35 20 0
      vertex -27.9625 -10.1164 0
    endloop
  endfacet
  facet normal 0 0 -1
    outer loop
      vertex -30.6184 -12.4177 0
      vertex -35 20 0
      vertex -29.6283 -10.8771 0
    endloop
  endfacet
  facet normal 0 0 -1
    outer loop
      vertex -24.7659 -11.5763 0
      vertex -35 20 0
      vertex -22.5842 12.3928 0
    endloop
  endfacet
  facet normal 0 0 -1
    outer loop
      vertex 24.3816 -14.249 0
      vertex -17.8934 11.5657 0
      vertex 24.3816 -12.4177 0
    endloop
  endfacet
  facet normal 0 0 -1
    outer loop
      vertex -24.7659 -11.5763 0
      vertex -22.5842 12.3928 0
      vertex -21.375 10.9518 0
    endloop
  endfacet
  facet normal 0 0 -1
    outer loop
      vertex 28.8501 -16.2896 0
      vertex 35 -20 0
      vertex 27.0375 -16.5503 0
    endloop
  endfacet
  facet normal 0 0 -1
    outer loop
      vertex -17.8934 15.101 0
      vertex 35 20 0
      vertex -17.25 13.3333 0
    endloop
  endfacet
  facet normal 0 0 -1
    outer loop
      vertex 20.4775 16.0416 0
      vertex -17.8934 11.5657 0
      vertex 35 20 0
    endloop
  endfacet
  facet normal 0 0 -1
    outer loop
      vertex -17.8934 11.5657 0
      vertex -17.25 13.3333 0
      vertex 35 20 0
    endloop
  endfacet
  facet normal 0 0 -1
    outer loop
      vertex 20.4775 10.6251 0
      vertex 35 -20 0
      vertex 18.625 10.9518 0
    endloop
  endfacet
  facet normal 0 0 -1
    outer loop
      vertex -21.375 15.7149 0
      vertex -35 20 0
      vertex -19.5225 16.0416 0
    endloop
  endfacet
  facet normal 0 0 -1
    outer loop
      vertex -17.8934 15.101 0
      vertex -19.5225 16.0416 0
      vertex 35 20 0
    endloop
  endfacet
  facet normal 0 0 -1
    outer loop
      vertex -22.5842 14.2739 0
      vertex -35 20 0
      vertex -21.375 15.7149 0
    endloop
  endfacet
  facet normal 0 0 -1
    outer loop
      vertex 17.4158 12.3928 0
      vertex -17.8934 11.5657 0
      vertex 17.4158 14.2739 0
    endloop
  endfacet
  facet normal 0 0 -1
    outer loop
      vertex 24.3816 -14.249 0
      vertex -19.5225 10.6251 0
      vertex -17.8934 11.5657 0
    endloop
  endfacet
  facet normal 0 0 -1
    outer loop
      vertex 24.3816 -12.4177 0
      vertex -17.8934 11.5657 0
      vertex 17.4158 12.3928 0
    endloop
  endfacet
  facet normal 0 0 -1
    outer loop
      vertex 35 -20 0
      vertex 17.4158 12.3928 0
      vertex 18.625 10.9518 0
    endloop
  endfacet
  facet normal 0 0 -1
    outer loop
      vertex 22.75 13.3333 0
      vertex 35 20 0
      vertex 22.1066 11.5657 0
    endloop
  endfacet
  facet normal 0 0 -1
    outer loop
      vertex 35 -20 0
      vertex 20.4775 10.6251 0
      vertex 22.1066 11.5657 0
    endloop
  endfacet
  facet normal 0 0 -1
    outer loop
      vertex 35 -20 0
      vertex 22.1066 11.5657 0
      vertex 35 20 0
    endloop
  endfacet
  facet normal 0 0 -1
    outer loop
      vertex 20.4775 16.0416 0
      vertex 35 20 0
      vertex 22.1066 15.101 0
    endloop
  endfacet
  facet normal 0 0 -1
    outer loop
      vertex 22.75 13.3333 0
      vertex 22.1066 15.101 0
      vertex 35 20 0
    endloop
  endfacet
  facet normal 0 0 -1
    outer loop
      vertex 18.625 15.7149 0
      vertex -17.8934 11.5657 0
      vertex 20.4775 16.0416 0
    endloop
  endfacet
  facet normal 0 0 -1
    outer loop
      vertex 24.3816 -14.249 0
      vertex -21.375 10.9518 0
      vertex -19.5225 10.6251 0
    endloop
  endfacet
  facet normal 0 0 -1
    outer loop
      vertex 17.4158 14.2739 0
      vertex -17.8934 11.5657 0
      vertex 18.625 15.7149 0
    endloop
  endfacet
  facet normal 0 0 -1
    outer loop
      vertex 25.3717 -10.8771 0
      vertex 24.3816 -12.4177 0
      vertex 17.4158 12.3928 0
    endloop
  endfacet
  facet normal 0 0 -1
    outer loop
      vertex -24.7659 -11.5763 0
      vertex -21.375 10.9518 0
      vertex 24.3816 -14.249 0
    endloop
  endfacet
  facet normal 0 0 -1
    outer loop
      vertex -24.7659 -11.5763 0
      vertex 24.3816 -14.249 0
      vertex 25.3717 -15.7895 0
    endloop
  endfacet
  facet normal 0 0 -1
    outer loop
      vertex -24.7659 -11.5763 0
      vertex 25.3717 -15.7895 0
      vertex 27.0375 -16.5503 0
    endloop
  endfacet
  facet normal 0 0 -1
    outer loop
      vertex -24.7659 -11.5763 0
      vertex 27.0375 -16.5503 0
      vertex 35 -20 0
    endloop
  endfacet
  facet normal 0 0 -1
    outer loop
      vertex 28.8501 -10.377 0
      vertex 17.4158 12.3928 0
      vertex 30.2341 -11.5763 0
    endloop
  endfacet
  facet normal 0 0 -1
    outer loop
      vertex 35 -20 0
      vertex 30.2341 -15.0904 0
      vertex 30.75 -13.3333 0
    endloop
  endfacet
  facet normal 0 0 -1
    outer loop
      vertex 35 -20 0
      vertex 30.75 -13.3333 0
      vertex 30.2341 -11.5763 0
    endloop
  endfacet
  facet normal 0 0 -1
    outer loop
      vertex 35 -20 0
      vertex 30.2341 -11.5763 0
      vertex 17.4158 12.3928 0
    endloop
  endfacet
  facet normal 0 0 -1
    outer loop
      vertex 27.0375 -10.1164 0
      vertex 17.4158 12.3928 0
      vertex 28.8501 -10.377 0
    endloop
  endfacet
  facet normal 0 0 -1
    outer loop
      vertex 27.0375 -10.1164 0
      vertex 25.3717 -10.8771 0
      vertex 17.4158 12.3928 0
    endloop
  endfacet
  facet normal 0 0 -1
    outer loop
      vertex -24.7659 -15.0904 0
      vertex 35 -20 0
      vertex -26.1499 -16.2896 0
    endloop
  endfacet
  facet normal 0 0 -1
    outer loop
      vertex 30.2341 -15.0904 0
      vertex 35 -20 0
      vertex 28.8501 -16.2896 0
    endloop
  endfacet
  facet normal 0 1 0
    outer loop
      vertex -35 20 0
      vertex -35 20 10
      vertex 35 20 0
    endloop
  endfacet
  facet normal 0 1 0
    outer loop
      vertex 35 20 0
      vertex -35 20 10
      vertex 35 20 10
    endloop
  endfacet
  facet normal 0 0 1
    outer loop
      vertex -30.125 -17.88 10
      vertex -35 -20 10
      vertex 35 -20 10
    endloop
  endfacet
  facet normal 0 0 1
    outer loop
      vertex -24.875 -17.88 10
      vertex -30.125 -17.88 10
      vertex 35 -20 10
    endloop
  endfacet
  facet normal 0 0 1
    outer loop
      vertex -32.75 -13.3333 10
      vertex -35 -20 10
      vertex -30.125 -17.88 10
    endloop
  endfacet
  facet normal 0 0 1
    outer loop
      vertex -24.875 -8.7867 10
      vertex -22.25 -13.3333 10
      vertex 35 -20 10
    endloop
  endfacet
  facet normal 0 0 1
    outer loop
      vertex -35 20 10
      vertex -35 -20 10
      vertex -32.75 -13.3333 10
    endloop
  endfacet
  facet normal 0 0 1
    outer loop
      vertex -22.5842 12.3928 10
      vertex -22.5842 14.2739 10
      vertex -35 20 10
    endloop
  endfacet
  facet normal 0 0 1
    outer loop
      vertex 24.875 -17.88 10
      vertex -24.875 -8.7867 10
      vertex 35 -20 10
    endloop
  endfacet
  facet normal 0 0 1
    outer loop
      vertex -35 20 10
      vertex -30.125 -8.7867 10
      vertex -24.875 -8.7867 10
    endloop
  endfacet
  facet normal 0 0 1
    outer loop
      vertex 20.4775 16.0416 10
      vertex 22.1066 15.101 10
      vertex 35 20 10
    endloop
  endfacet
  facet normal 0 0 1
    outer loop
      vertex -22.25 -13.3333 10
      vertex -24.875 -17.88 10
      vertex 35 -20 10
    endloop
  endfacet
  facet normal 0 0 1
    outer loop
      vertex -19.5225 16.0416 10
      vertex -17.8934 15.101 10
      vertex 35 20 10
    endloop
  endfacet
  facet normal 0 0 1
    outer loop
      vertex -35 20 10
      vertex -24.875 -8.7867 10
      vertex -22.5842 12.3928 10
    endloop
  endfacet
  facet normal 0 0 1
    outer loop
      vertex 22.25 -13.3333 10
      vertex -17.25 13.3333 10
      vertex -17.8934 11.5657 10
    endloop
  endfacet
  facet normal 0 0 1
    outer loop
      vertex -21.375 15.7149 10
      vertex -35 20 10
      vertex -22.5842 14.2739 10
    endloop
  endfacet
  facet normal 0 0 1
    outer loop
      vertex -19.5225 16.0416 10
      vertex -35 20 10
      vertex -21.375 15.7149 10
    endloop
  endfacet
  facet normal 0 0 1
    outer loop
      vertex -17.8934 15.101 10
      vertex -17.25 13.3333 10
      vertex 35 20 10
    endloop
  endfacet
  facet normal 0 0 1
    outer loop
      vertex 35 20 10
      vertex -35 20 10
      vertex -19.5225 16.0416 10
    endloop
  endfacet
  facet normal 0 0 1
    outer loop
      vertex 24.875 -8.7867 10
      vertex 18.625 10.9518 10
      vertex 17.4158 12.3928 10
    endloop
  endfacet
  facet normal 0 0 1
    outer loop
      vertex -21.375 10.9518 10
      vertex -24.875 -8.7867 10
      vertex -19.5225 10.6251 10
    endloop
  endfacet
  facet normal 0 0 1
    outer loop
      vertex -22.5842 12.3928 10
      vertex -24.875 -8.7867 10
      vertex -21.375 10.9518 10
    endloop
  endfacet
  facet normal 0 0 1
    outer loop
      vertex 30.125 -8.7867 10
      vertex 32.75 -13.3333 10
      vertex 22.75 13.3333 10
    endloop
  endfacet
  facet normal 0 0 1
    outer loop
      vertex 17.4158 14.2739 10
      vertex -17.25 13.3333 10
      vertex 17.4158 12.3928 10
    endloop
  endfacet
  facet normal 0 0 1
    outer loop
      vertex 18.625 15.7149 10
      vertex -17.25 13.3333 10
      vertex 17.4158 14.2739 10
    endloop
  endfacet
  facet normal 0 0 1
    outer loop
      vertex 35 20 10
      vertex -17.25 13.3333 10
      vertex 18.625 15.7149 10
    endloop
  endfacet
  facet normal 0 0 1
    outer loop
      vertex 22.1066 15.101 10
      vertex 22.75 13.3333 10
      vertex 35 20 10
    endloop
  endfacet
  facet normal 0 0 1
    outer loop
      vertex 35 20 10
      vertex 18.625 15.7149 10
      vertex 20.4775 16.0416 10
    endloop
  endfacet
  facet normal 0 0 1
    outer loop
      vertex 22.25 -13.3333 10
      vertex -17.8934 11.5657 10
      vertex -19.5225 10.6251 10
    endloop
  endfacet
  facet normal 0 0 1
    outer loop
      vertex 30.125 -8.7867 10
      vertex 22.75 13.3333 10
      vertex 22.1066 11.5657 10
    endloop
  endfacet
  facet normal 0 0 1
    outer loop
      vertex 30.125 -17.88 10
      vertex 24.875 -17.88 10
      vertex 35 -20 10
    endloop
  endfacet
  facet normal 0 0 1
    outer loop
      vertex -19.5225 10.6251 10
      vertex -24.875 -8.7867 10
      vertex 24.875 -17.88 10
    endloop
  endfacet
  facet normal 0 0 1
    outer loop
      vertex 24.875 -8.7867 10
      vertex 30.125 -8.7867 10
      vertex 20.4775 10.6251 10
    endloop
  endfacet
  facet normal 0 0 1
    outer loop
      vertex -19.5225 10.6251 10
      vertex 24.875 -17.88 10
      vertex 22.25 -13.3333 10
    endloop
  endfacet
  facet normal 0 0 1
    outer loop
      vertex 32.75 -13.3333 10
      vertex 30.125 -17.88 10
      vertex 35 -20 10
    endloop
  endfacet
  facet normal 0 0 1
    outer loop
      vertex 17.4158 12.3928 10
      vertex -17.25 13.3333 10
      vertex 24.875 -8.7867 10
    endloop
  endfacet
  facet normal 0 0 1
    outer loop
      vertex 22.1066 11.5657 10
      vertex 20.4775 10.6251 10
      vertex 30.125 -8.7867 10
    endloop
  endfacet
  facet normal 0 0 1
    outer loop
      vertex 35 20 10
      vertex 32.75 -13.3333 10
      vertex 35 -20 10
    endloop
  endfacet
  facet normal 0 0 1
    outer loop
      vertex 35 20 10
      vertex 22.75 13.3333 10
      vertex 32.75 -13.3333 10
    endloop
  endfacet
  facet normal 0 0 1
    outer loop
      vertex -32.75 -13.3333 10
      vertex -30.125 -8.7867 10
      vertex -35 20 10
    endloop
  endfacet
  facet normal 0 0 1
    outer loop
      vertex 24.875 -8.7867 10
      vertex 20.4775 10.6251 10
      vertex 18.625 10.9518 10
    endloop
  endfacet
  facet normal 0 0 1
    outer loop
      vertex 22.25 -13.3333 10
      vertex 24.875 -8.7867 10
      vertex -17.25 13.3333 10
    endloop
  endfacet
  facet normal 1 0 0
    outer loop
      vertex 35 -20 10
      vertex 35 -20 0
      vertex 35 20 0
    endloop
  endfacet
  facet normal 1 0 0
    outer loop
      vertex 35 20 10
      vertex 35 -20 10
      vertex 35 20 0
    endloop
  endfacet
  facet normal 1 0 0
    outer loop
      vertex -30.6184 -12.4177 0
      vertex -30.6184 -12.4177 4.75
      vertex -30.6184 -14.249 4.75
    endloop
  endfacet
  facet normal 1 0 0
    outer loop
      vertex -30.6184 -14.249 0
      vertex -30.6184 -12.4177 0
      vertex -30.6184 -14.249 4.75
    endloop
  endfacet
  facet normal 0.841253 -0.540641 0
    outer loop
      vertex -29.6283 -10.8771 0
      vertex -29.6283 -10.8771 4.75
      vertex -30.6184 -12.4177 4.75
    endloop
  endfacet
  facet normal 0.841253 -0.540641 0
    outer loop
      vertex -30.6184 -12.4177 0
      vertex -29.6283 -10.8771 0
      vertex -30.6184 -12.4177 4.75
    endloop
  endfacet
  facet normal 0.415415 -0.909632 0
    outer loop
      vertex -27.9625 -10.1164 0
      vertex -27.9625 -10.1164 4.75
      vertex -29.6283 -10.8771 4.75
    endloop
  endfacet
  facet normal 0.415415 -0.909632 0
    outer loop
      vertex -29.6283 -10.8771 0
      vertex -27.9625 -10.1164 0
      vertex -29.6283 -10.8771 4.75
    endloop
  endfacet
  facet normal -0.142315 -0.989821 0
    outer loop
      vertex -26.1499 -10.377 0
      vertex -26.1499 -10.377 4.75
      vertex -27.9625 -10.1164 4.75
    endloop
  endfacet
  facet normal -0.142315 -0.989821 0
    outer loop
      vertex -27.9625 -10.1164 0
      vertex -26.1499 -10.377 0
      vertex -27.9625 -10.1164 4.75
    endloop
  endfacet
  facet normal -0.654861 -0.75575 0
    outer loop
      vertex -24.7659 -11.5763 0
      vertex -24.7659 -11.5763 4.75
      vertex -26.1499 -10.377 4.75
    endloop
  endfacet
  facet normal -0.654861 -0.75575 0
    outer loop
      vertex -26.1499 -10.377 0
      vertex -24.7659 -11.5763 0
      vertex -26.1499 -10.377 4.75
    endloop
  endfacet
  facet normal -0.959493 -0.281732 0
    outer loop
      vertex -24.25 -13.3333 4.75
      vertex -24.7659 -11.5763 4.75
      vertex -24.25 -13.3333 0
    endloop
  endfacet
  facet normal -0.959493 -0.281732 0
    outer loop
      vertex -24.25 -13.3333 0
      vertex -24.7659 -11.5763 4.75
      vertex -24.7659 -11.5763 0
    endloop
  endfacet
  facet normal -0.959493 0.281732 0
    outer loop
      vertex -24.25 -13.3333 4.75
      vertex -24.25 -13.3333 0
      vertex -24.7659 -15.0904 4.75
    endloop
  endfacet
  facet normal -0.959493 0.281732 0
    outer loop
      vertex -24.7659 -15.0904 4.75
      vertex -24.25 -13.3333 0
      vertex -24.7659 -15.0904 0
    endloop
  endfacet
  facet normal -0.654861 0.75575 0
    outer loop
      vertex -24.7659 -15.0904 4.75
      vertex -24.7659 -15.0904 0
      vertex -26.1499 -16.2896 4.75
    endloop
  endfacet
  facet normal -0.654861 0.75575 0
    outer loop
      vertex -26.1499 -16.2896 4.75
      vertex -24.7659 -15.0904 0
      vertex -26.1499 -16.2896 0
    endloop
  endfacet
  facet normal -0.142315 0.989821 0
    outer loop
      vertex -26.1499 -16.2896 4.75
      vertex -26.1499 -16.2896 0
      vertex -27.9625 -16.5503 4.75
    endloop
  endfacet
  facet normal -0.142315 0.989821 0
    outer loop
      vertex -27.9625 -16.5503 4.75
      vertex -26.1499 -16.2896 0
      vertex -27.9625 -16.5503 0
    endloop
  endfacet
  facet normal 0.415415 0.909632 0
    outer loop
      vertex -27.9625 -16.5503 4.75
      vertex -27.9625 -16.5503 0
      vertex -29.6283 -15.7895 4.75
    endloop
  endfacet
  facet normal 0.415415 0.909632 0
    outer loop
      vertex -29.6283 -15.7895 4.75
      vertex -27.9625 -16.5503 0
      vertex -29.6283 -15.7895 0
    endloop
  endfacet
  facet normal 0.841253 0.540641 0
    outer loop
      vertex -30.6184 -14.249 4.75
      vertex -29.6283 -15.7895 4.75
      vertex -29.6283 -15.7895 0
    endloop
  endfacet
  facet normal 0.841253 0.540641 0
    outer loop
      vertex -30.6184 -14.249 0
      vertex -30.6184 -14.249 4.75
      vertex -29.6283 -15.7895 0
    endloop
  endfacet
  facet normal 0.766044 -0.642788 0
    outer loop
      vertex -21.375 15.7149 0
      vertex -21.375 15.7149 10
      vertex -22.5842 14.2739 10
    endloop
  endfacet
  facet normal 0.766044 -0.642788 0
    outer loop
      vertex -22.5842 14.2739 0
      vertex -21.375 15.7149 0
      vertex -22.5842 14.2739 10
    endloop
  endfacet
  facet normal 1 0 0
    outer loop
      vertex -22.5842 14.2739 0
      vertex -22.5842 14.2739 10
      vertex -22.5842 12.3928 10
    endloop
  endfacet
  facet normal 1 0 0
    outer loop
      vertex -22.5842 12.3928 0
      vertex -22.5842 14.2739 0
      vertex -22.5842 12.3928 10
    endloop
  endfacet
  facet normal 0.173648 -0.984808 0
    outer loop
      vertex -19.5225 16.0416 0
      vertex -19.5225 16.0416 10
      vertex -21.375 15.7149 10
    endloop
  endfacet
  facet normal 0.173648 -0.984808 0
    outer loop
      vertex -21.375 15.7149 0
      vertex -19.5225 16.0416 0
      vertex -21.375 15.7149 10
    endloop
  endfacet
  facet normal -0.5 -0.866026 0
    outer loop
      vertex -17.8934 15.101 0
      vertex -17.8934 15.101 10
      vertex -19.5225 16.0416 10
    endloop
  endfacet
  facet normal -0.5 -0.866026 0
    outer loop
      vertex -19.5225 16.0416 0
      vertex -17.8934 15.101 0
      vertex -19.5225 16.0416 10
    endloop
  endfacet
  facet normal -0.939693 -0.34202 0
    outer loop
      vertex -17.25 13.3333 10
      vertex -17.8934 15.101 10
      vertex -17.25 13.3333 0
    endloop
  endfacet
  facet normal -0.939693 -0.34202 0
    outer loop
      vertex -17.25 13.3333 0
      vertex -17.8934 15.101 10
      vertex -17.8934 15.101 0
    endloop
  endfacet
  facet normal -0.939693 0.34202 0
    outer loop
      vertex -17.25 13.3333 10
      vertex -17.25 13.3333 0
      vertex -17.8934 11.5657 10
    endloop
  endfacet
  facet normal -0.939693 0.34202 0
    outer loop
      vertex -17.8934 11.5657 10
      vertex -17.25 13.3333 0
      vertex -17.8934 11.5657 0
    endloop
  endfacet
  facet normal -0.5 0.866026 0
    outer loop
      vertex -17.8934 11.5657 10
      vertex -17.8934 11.5657 0
      vertex -19.5225 10.6251 10
    endloop
  endfacet
  facet normal -0.5 0.866026 0
    outer loop
      vertex -19.5225 10.6251 10
      vertex -17.8934 11.5657 0
      vertex -19.5225 10.6251 0
    endloop
  endfacet
  facet normal 0.173648 0.984808 0
    outer loop
      vertex -19.5225 10.6251 10
      vertex -19.5225 10.6251 0
      vertex -21.375 10.9518 10
    endloop
  endfacet
  facet normal 0.173648 0.984808 0
    outer loop
      vertex -21.375 10.9518 10
      vertex -19.5225 10.6251 0
      vertex -21.375 10.9518 0
    endloop
  endfacet
  facet normal 0.766044 0.642788 0
    outer loop
      vertex -22.5842 12.3928 10
      vertex -21.375 10.9518 10
      vertex -21.375 10.9518 0
    endloop
  endfacet
  facet normal 0.766044 0.642788 0
    outer loop
      vertex -22.5842 12.3928 0
      vertex -22.5842 12.3928 10
      vertex -21.375 10.9518 0
    endloop
  endfacet
  facet normal 0.766044 -0.642788 0
    outer loop
      vertex 18.625 15.7149 0
      vertex 18.625 15.7149 10
      vertex 17.4158 14.2739 10
    endloop
  endfacet
  facet normal 0.766044 -0.642788 0
    outer loop
      vertex 17.4158 14.2739 0
      vertex 18.625 15.7149 0
      vertex 17.4158 14.2739 10
    endloop
  endfacet
  facet normal 1 0 0
    outer loop
      vertex 17.4158 14.2739 0
      vertex 17.4158 14.2739 10
      vertex 17.4158 12.3928 10
    endloop
  endfacet
  facet normal 1 0 0
    outer loop
      vertex 17.4158 12.3928 0
      vertex 17.4158 14.2739 0
      vertex 17.4158 12.3928 10
    endloop
  endfacet
  facet normal 0.173648 -0.984808 0
    outer loop
      vertex 20.4775 16.0416 0
      vertex 20.4775 16.0416 10
      vertex 18.625 15.7149 10
    endloop
  endfacet
  facet normal 0.173648 -0.984808 0
    outer loop
      vertex 18.625 15.7149 0
      vertex 20.4775 16.0416 0
      vertex 18.625 15.7149 10
    endloop
  endfacet
  facet normal -0.5 -0.866026 0
    outer loop
      vertex 22.1066 15.101 0
      vertex 22.1066 15.101 10
      vertex 20.4775 16.0416 10
    endloop
  endfacet
  facet normal -0.5 -0.866026 0
    outer loop
      vertex 20.4775 16.0416 0
      vertex 22.1066 15.101 0
      vertex 20.4775 16.0416 10
    endloop
  endfacet
  facet normal -0.939693 -0.34202 0
    outer loop
      vertex 22.75 13.3333 10
      vertex 22.1066 15.101 10
      vertex 22.75 13.3333 0
    endloop
  endfacet
  facet normal -0.939693 -0.34202 0
    outer loop
      vertex 22.75 13.3333 0
      vertex 22.1066 15.101 10
      vertex 22.1066 15.101 0
    endloop
  endfacet
  facet normal -0.939693 0.34202 0
    outer loop
      vertex 22.75 13.3333 10
      vertex 22.75 13.3333 0
      vertex 22.1066 11.5657 10
    endloop
  endfacet
  facet normal -0.939693 0.34202 0
    outer loop
      vertex 22.1066 11.5657 10
      vertex 22.75 13.3333 0
      vertex 22.1066 11.5657 0
    endloop
  endfacet
  facet normal -0.5 0.866026 0
    outer loop
      vertex 22.1066 11.5657 10
      vertex 22.1066 11.5657 0
      vertex 20.4775 10.6251 10
    endloop
  endfacet
  facet normal -0.5 0.866026 0
    outer loop
      vertex 20.4775 10.6251 10
      vertex 22.1066 11.5657 0
      vertex 20.4775 10.6251 0
    endloop
  endfacet
  facet normal 0.173648 0.984808 0
    outer loop
      vertex 20.4775 10.6251 10
      vertex 20.4775 10.6251 0
      vertex 18.625 10.9518 10
    endloop
  endfacet
  facet normal 0.173648 0.984808 0
    outer loop
      vertex 18.625 10.9518 10
      vertex 20.4775 10.6251 0
      vertex 18.625 10.9518 0
    endloop
  endfacet
  facet normal 0.766044 0.642788 0
    outer loop
      vertex 17.4158 12.3928 10
      vertex 18.625 10.9518 10
      vertex 18.625 10.9518 0
    endloop
  endfacet
  facet normal 0.766044 0.642788 0
    outer loop
      vertex 17.4158 12.3928 0
      vertex 17.4158 12.3928 10
      vertex 18.625 10.9518 0
    endloop
  endfacet
  facet normal 0.841253 -0.540641 0
    outer loop
      vertex 25.3717 -10.8771 0
      vertex 25.3717 -10.8771 4.75
      vertex 24.3816 -12.4177 4.75
    endloop
  endfacet
  facet normal 0.841253 -0.540641 0
    outer loop
      vertex 24.3816 -12.4177 0
      vertex 25.3717 -10.8771 0
      vertex 24.3816 -12.4177 4.75
    endloop
  endfacet
  facet normal 1 0 0
    outer loop
      vertex 24.3816 -12.4177 0
      vertex 24.3816 -12.4177 4.75
      vertex 24.3816 -14.249 4.75
    endloop
  endfacet
  facet normal 1 0 0
    outer loop
      vertex 24.3816 -14.249 0
      vertex 24.3816 -12.4177 0
      vertex 24.3816 -14.249 4.75
    endloop
  endfacet
  facet normal 0.415415 -0.909632 0
    outer loop
      vertex 27.0375 -10.1164 0
      vertex 27.0375 -10.1164 4.75
      vertex 25.3717 -10.8771 4.75
    endloop
  endfacet
  facet normal 0.415415 -0.909632 0
    outer loop
      vertex 25.3717 -10.8771 0
      vertex 27.0375 -10.1164 0
      vertex 25.3717 -10.8771 4.75
    endloop
  endfacet
  facet normal -0.142315 -0.989821 0
    outer loop
      vertex 28.8501 -10.377 0
      vertex 28.8501 -10.377 4.75
      vertex 27.0375 -10.1164 4.75
    endloop
  endfacet
  facet normal -0.142315 -0.989821 0
    outer loop
      vertex 27.0375 -10.1164 0
      vertex 28.8501 -10.377 0
      vertex 27.0375 -10.1164 4.75
    endloop
  endfacet
  facet normal -0.654861 -0.75575 0
    outer loop
      vertex 30.2341 -11.5763 0
      vertex 30.2341 -11.5763 4.75
      vertex 28.8501 -10.377 4.75
    endloop
  endfacet
  facet normal -0.654861 -0.75575 0
    outer loop
      vertex 28.8501 -10.377 0
      vertex 30.2341 -11.5763 0
      vertex 28.8501 -10.377 4.75
    endloop
  endfacet
  facet normal -0.959493 -0.281732 0
    outer loop
      vertex 30.75 -13.3333 4.75
      vertex 30.2341 -11.5763 4.75
      vertex 30.75 -13.3333 0
    endloop
  endfacet
  facet normal -0.959493 -0.281732 0
    outer loop
      vertex 30.75 -13.3333 0
      vertex 30.2341 -11.5763 4.75
      vertex 30.2341 -11.5763 0
    endloop
  endfacet
  facet normal -0.959493 0.281732 0
    outer loop
      vertex 30.75 -13.3333 4.75
      vertex 30.75 -13.3333 0
      vertex 30.2341 -15.0904 4.75
    endloop
  endfacet
  facet normal -0.959493 0.281732 0
    outer loop
      vertex 30.2341 -15.0904 4.75
      vertex 30.75 -13.3333 0
      vertex 30.2341 -15.0904 0
    endloop
  endfacet
  facet normal -0.654861 0.75575 0
    outer loop
      vertex 30.2341 -15.0904 4.75
      vertex 30.2341 -15.0904 0
      vertex 28.8501 -16.2896 4.75
    endloop
  endfacet
  facet normal -0.654861 0.75575 0
    outer loop
      vertex 28.8501 -16.2896 4.75
      vertex 30.2341 -15.0904 0
      vertex 28.8501 -16.2896 0
    endloop
  endfacet
  facet normal -0.142315 0.989821 0
    outer loop
      vertex 28.8501 -16.2896 4.75
      vertex 28.8501 -16.2896 0
      vertex 27.0375 -16.5503 4.75
    endloop
  endfacet
  facet normal -0.142315 0.989821 0
    outer loop
      vertex 27.0375 -16.5503 4.75
      vertex 28.8501 -16.2896 0
      vertex 27.0375 -16.5503 0
    endloop
  endfacet
  facet normal 0.415415 0.909632 0
    outer loop
      vertex 27.0375 -16.5503 4.75
      vertex 27.0375 -16.5503 0
      vertex 25.3717 -15.7895 4.75
    endloop
  endfacet
  facet normal 0.415415 0.909632 0
    outer loop
      vertex 25.3717 -15.7895 4.75
      vertex 27.0375 -16.5503 0
      vertex 25.3717 -15.7895 0
    endloop
  endfacet
  facet normal 0.841253 0.540641 0
    outer loop
      vertex 24.3816 -14.249 4.75
      vertex 25.3717 -15.7895 4.75
      vertex 25.3717 -15.7895 0
    endloop
  endfacet
  facet normal 0.841253 0.540641 0
    outer loop
      vertex 24.3816 -14.249 0
      vertex 24.3816 -14.249 4.75
      vertex 25.3717 -15.7895 0
    endloop
  endfacet
  facet normal 0 1 0
    outer loop
      vertex -24.875 -17.88 10
      vertex -24.875 -17.88 4.75
      vertex -30.125 -17.88 10
    endloop
  endfacet
  facet normal 0 1 0
    outer loop
      vertex -30.125 -17.88 10
      vertex -24.875 -17.88 4.75
      vertex -30.125 -17.88 4.75
    endloop
  endfacet
  facet normal 0.866025 0.5 0
    outer loop
      vertex -32.75 -13.3333 10
      vertex -30.125 -17.88 10
      vertex -30.125 -17.88 4.75
    endloop
  endfacet
  facet normal 0.866025 0.5 0
    outer loop
      vertex -32.75 -13.3333 4.75
      vertex -32.75 -13.3333 10
      vertex -30.125 -17.88 4.75
    endloop
  endfacet
  facet normal -0.866025 0.5 0
    outer loop
      vertex -22.25 -13.3333 10
      vertex -22.25 -13.3333 4.75
      vertex -24.875 -17.88 10
    endloop
  endfacet
  facet normal -0.866025 0.5 0
    outer loop
      vertex -24.875 -17.88 10
      vertex -22.25 -13.3333 4.75
      vertex -24.875 -17.88 4.75
    endloop
  endfacet
  facet normal -0.866025 -0.5 0
    outer loop
      vertex -22.25 -13.3333 10
      vertex -24.875 -8.7867 10
      vertex -22.25 -13.3333 4.75
    endloop
  endfacet
  facet normal -0.866025 -0.5 0
    outer loop
      vertex -22.25 -13.3333 4.75
      vertex -24.875 -8.7867 10
      vertex -24.875 -8.7867 4.75
    endloop
  endfacet
  facet normal 0 -1 0
    outer loop
      vertex -24.875 -8.7867 4.75
      vertex -24.875 -8.7867 10
      vertex -30.125 -8.7867 10
    endloop
  endfacet
  facet normal 0 -1 0
    outer loop
      vertex -30.125 -8.7867 4.75
      vertex -24.875 -8.7867 4.75
      vertex -30.125 -8.7867 10
    endloop
  endfacet
  facet normal 0.866025 -0.5 0
    outer loop
      vertex -30.125 -8.7867 4.75
      vertex -30.125 -8.7867 10
      vertex -32.75 -13.3333 10
    endloop
  endfacet
  facet normal 0.866025 -0.5 0
    outer loop
      vertex -32.75 -13.3333 4.75
      vertex -30.125 -8.7867 4.75
      vertex -32.75 -13.3333 10
    endloop
  endfacet
  facet normal 0 1 0
    outer loop
      vertex 30.125 -17.88 10
      vertex 30.125 -17.88 4.75
      vertex 24.875 -17.88 10
    endloop
  endfacet
  facet normal 0 1 0
    outer loop
      vertex 24.875 -17.88 10
      vertex 30.125 -17.88 4.75
      vertex 24.875 -17.88 4.75
    endloop
  endfacet
  facet normal 0.866025 0.5 0
    outer loop
      vertex 22.25 -13.3333 10
      vertex 24.875 -17.88 10
      vertex 24.875 -17.88 4.75
    endloop
  endfacet
  facet normal 0.866025 0.5 0
    outer loop
      vertex 22.25 -13.3333 4.75
      vertex 22.25 -13.3333 10
      vertex 24.875 -17.88 4.75
    endloop
  endfacet
  facet normal -0.866025 0.5 0
    outer loop
      vertex 32.75 -13.3333 10
      vertex 32.75 -13.3333 4.75
      vertex 30.125 -17.88 10
    endloop
  endfacet
  facet normal -0.866025 0.5 0
    outer loop
      vertex 30.125 -17.88 10
      vertex 32.75 -13.3333 4.75
      vertex 30.125 -17.88 4.75
    endloop
  endfacet
  facet normal -0.866025 -0.5 0
    outer loop
      vertex 32.75 -13.3333 10
      vertex 30.125 -8.7867 10
      vertex 32.75 -13.3333 4.75
    endloop
  endfacet
  facet normal -0.866025 -0.5 0
    outer loop
      vertex 32.75 -13.3333 4.75
      vertex 30.125 -8.7867 10
      vertex 30.125 -8.7867 4.75
    endloop
  endfacet
  facet normal 0 -1 0
    outer loop
      vertex 30.125 -8.7867 4.75
      vertex 30.125 -8.7867 10
      vertex 24.875 -8.7867 10
    endloop
  endfacet
  facet normal 0 -1 0
    outer loop
      vertex 24.875 -8.7867 4.75
      vertex 30.125 -8.7867 4.75
      vertex 24.875 -8.7867 10
    endloop
  endfacet
  facet normal 0.866025 -0.5 0
    outer loop
      vertex 24.875 -8.7867 4.75
      vertex 24.875 -8.7867 10
      vertex 22.25 -13.3333 10
    endloop
  endfacet
  facet normal 0.866025 -0.5 0
    outer loop
      vertex 22.25 -13.3333 4.75
      vertex 24.875 -8.7867 4.75
      vertex 22.25 -13.3333 10
    endloop
  endfacet
  facet normal 0 0 1
    outer loop
      vertex -24.7659 -15.0904 4.75
      vertex -24.875 -17.88 4.75
      vertex -22.25 -13.3333 4.75
    endloop
  endfacet
  facet normal 0 0 1
    outer loop
      vertex -26.1499 -16.2896 4.75
      vertex -27.9625 -16.5503 4.75
      vertex -30.125 -17.88 4.75
    endloop
  endfacet
  facet normal 0 0 1
    outer loop
      vertex -27.9625 -10.1164 4.75
      vertex -26.1499 -10.377 4.75
      vertex -24.875 -8.7867 4.75
    endloop
  endfacet
  facet normal 0 0 1
    outer loop
      vertex -32.75 -13.3333 4.75
      vertex -30.6184 -12.4177 4.75
      vertex -30.125 -8.7867 4.75
    endloop
  endfacet
  facet normal 0 0 1
    outer loop
      vertex -26.1499 -10.377 4.75
      vertex -24.7659 -11.5763 4.75
      vertex -24.875 -8.7867 4.75
    endloop
  endfacet
  facet normal 0 0 1
    outer loop
      vertex -30.125 -8.7867 4.75
      vertex -27.9625 -10.1164 4.75
      vertex -24.875 -8.7867 4.75
    endloop
  endfacet
  facet normal 0 0 1
    outer loop
      vertex -30.125 -8.7867 4.75
      vertex -29.6283 -10.8771 4.75
      vertex -27.9625 -10.1164 4.75
    endloop
  endfacet
  facet normal 0 0 1
    outer loop
      vertex -24.875 -8.7867 4.75
      vertex -24.7659 -11.5763 4.75
      vertex -22.25 -13.3333 4.75
    endloop
  endfacet
  facet normal 0 0 1
    outer loop
      vertex -24.7659 -11.5763 4.75
      vertex -24.25 -13.3333 4.75
      vertex -22.25 -13.3333 4.75
    endloop
  endfacet
  facet normal 0 0 1
    outer loop
      vertex -29.6283 -15.7895 4.75
      vertex -30.6184 -14.249 4.75
      vertex -30.125 -17.88 4.75
    endloop
  endfacet
  facet normal 0 0 1
    outer loop
      vertex -26.1499 -16.2896 4.75
      vertex -24.875 -17.88 4.75
      vertex -24.7659 -15.0904 4.75
    endloop
  endfacet
  facet normal 0 0 1
    outer loop
      vertex -30.125 -17.88 4.75
      vertex -24.875 -17.88 4.75
      vertex -26.1499 -16.2896 4.75
    endloop
  endfacet
  facet normal 0 0 1
    outer loop
      vertex -32.75 -13.3333 4.75
      vertex -30.6184 -14.249 4.75
      vertex -30.6184 -12.4177 4.75
    endloop
  endfacet
  facet normal 0 0 1
    outer loop
      vertex -32.75 -13.3333 4.75
      vertex -30.125 -17.88 4.75
      vertex -30.6184 -14.249 4.75
    endloop
  endfacet
  facet normal 0 0 1
    outer loop
      vertex -30.6184 -12.4177 4.75
      vertex -29.6283 -10.8771 4.75
      vertex -30.125 -8.7867 4.75
    endloop
  endfacet
  facet normal 0 0 1
    outer loop
      vertex -24.25 -13.3333 4.75
      vertex -24.7659 -15.0904 4.75
      vertex -22.25 -13.3333 4.75
    endloop
  endfacet
  facet normal 0 0 1
    outer loop
      vertex -27.9625 -16.5503 4.75
      vertex -29.6283 -15.7895 4.75
      vertex -30.125 -17.88 4.75
    endloop
  endfacet
  facet normal 0 0 1
    outer loop
      vertex 30.2341 -15.0904 4.75
      vertex 30.125 -17.88 4.75
      vertex 32.75 -13.3333 4.75
    endloop
  endfacet
  facet normal 0 0 1
    outer loop
      vertex 28.8501 -16.2896 4.75
      vertex 27.0375 -16.5503 4.75
      vertex 24.875 -17.88 4.75
    endloop
  endfacet
  facet normal 0 0 1
    outer loop
      vertex 27.0375 -10.1164 4.75
      vertex 28.8501 -10.377 4.75
      vertex 30.125 -8.7867 4.75
    endloop
  endfacet
  facet normal 0 0 1
    outer loop
      vertex 22.25 -13.3333 4.75
      vertex 24.3816 -12.4177 4.75
      vertex 24.875 -8.7867 4.75
    endloop
  endfacet
  facet normal 0 0 1
    outer loop
      vertex 28.8501 -10.377 4.75
      vertex 30.2341 -11.5763 4.75
      vertex 30.125 -8.7867 4.75
    endloop
  endfacet
  facet normal 0 0 1
    outer loop
      vertex 24.875 -8.7867 4.75
      vertex 27.0375 -10.1164 4.75
      vertex 30.125 -8.7867 4.75
    endloop
  endfacet
  facet normal 0 0 1
    outer loop
      vertex 24.875 -8.7867 4.75
      vertex 25.3717 -10.8771 4.75
      vertex 27.0375 -10.1164 4.75
    endloop
  endfacet
  facet normal 0 0 1
    outer loop
      vertex 30.125 -8.7867 4.75
      vertex 30.2341 -11.5763 4.75
      vertex 32.75 -13.3333 4.75
    endloop
  endfacet
  facet normal 0 0 1
    outer loop
      vertex 30.2341 -11.5763 4.75
      vertex 30.75 -13.3333 4.75
      vertex 32.75 -13.3333 4.75
    endloop
  endfacet
  facet normal 0 0 1
    outer loop
      vertex 25.3717 -15.7895 4.75
      vertex 24.3816 -14.249 4.75
      vertex 24.875 -17.88 4.75
    endloop
  endfacet
  facet normal 0 0 1
    outer loop
      vertex 28.8501 -16.2896 4.75
      vertex 30.125 -17.88 4.75
      vertex 30.2341 -15.0904 4.75
    endloop
  endfacet
  facet normal 0 0 1
    outer loop
      vertex 24.875 -17.88 4.75
      vertex 30.125 -17.88 4.75
      vertex 28.8501 -16.2896 4.75
    endloop
  endfacet
  facet normal 0 0 1
    outer loop
      vertex 22.25 -13.3333 4.75
      vertex 24.3816 -14.249 4.75
      vertex 24.3816 -12.4177 4.75
    endloop
  endfacet
  facet normal 0 0 1
    outer loop
      vertex 22.25 -13.3333 4.75
      vertex 24.875 -17.88 4.75
      vertex 24.3816 -14.249 4.75
    endloop
  endfacet
  facet normal 0 0 1
    outer loop
      vertex 24.3816 -12.4177 4.75
      vertex 25.3717 -10.8771 4.75
      vertex 24.875 -8.7867 4.75
    endloop
  endfacet
  facet normal 0 0 1
    outer loop
      vertex 30.75 -13.3333 4.75
      vertex 30.2341 -15.0904 4.75
      vertex 32.75 -13.3333 4.75
    endloop
  endfacet
  facet normal 0 0 1
    outer loop
      vertex 27.0375 -16.5503 4.75
      vertex 25.3717 -15.7895 4.75
      vertex 24.875 -17.88 4.75
    endloop
  endfacet
endsolid OpenSCAD_Model
