solid OpenSCAD_Model
  facet normal -1 0 0
    outer loop
      vertex -35 -16.5 0
      vertex -35 -16.5 13
      vertex -35 16.5 0
    endloop
  endfacet
  facet normal -1 0 0
    outer loop
      vertex -35 16.5 0
      vertex -35 -16.5 13
      vertex -35 16.5 13
    endloop
  endfacet
  facet normal 0 -1 0
    outer loop
      vertex -35 -16.5 13
      vertex -35 -16.5 0
      vertex -4.38619 -16.5 0
    endloop
  endfacet
  facet normal 0 -1 0
    outer loop
      vertex 4.39296 -16.5 7
      vertex -35 -16.5 13
      vertex -4.38619 -16.5 7
    endloop
  endfacet
  facet normal 0 -1 0
    outer loop
      vertex -4.38619 -16.5 7
      vertex -35 -16.5 13
      vertex -4.38619 -16.5 0
    endloop
  endfacet
  facet normal 0 -1 0
    outer loop
      vertex 35 -16.5 13
      vertex -35 -16.5 13
      vertex 4.39296 -16.5 7
    endloop
  endfacet
  facet normal 0 -1 0
    outer loop
      vertex 35 -16.5 0
      vertex 4.39296 -16.5 7
      vertex 4.39296 -16.5 0
    endloop
  endfacet
  facet normal 0 -1 0
    outer loop
      vertex 35 -16.5 13
      vertex 4.39296 -16.5 7
      vertex 35 -16.5 0
    endloop
  endfacet
  facet normal 0 0 -1
    outer loop
      vertex -24.7659 -6.24292 0
      vertex -35 16.5 0
      vertex -4.38619 -16.5 0
    endloop
  endfacet
  facet normal 0 0 -1
    outer loop
      vertex -19.5225 13.7082 0
      vertex -35 16.5 0
      vertex 35 16.5 0
    endloop
  endfacet
  facet normal 0 0 -1
    outer loop
      vertex 30.75 -8 0
      vertex 35 16.5 0
      vertex 35 -16.5 0
    endloop
  endfacet
  facet normal 0 0 -1
    outer loop
      vertex 4.73484 -8.81472 0
      vertex 35 16.5 0
      vertex 5.6749 -10.5518 0
    endloop
  endfacet
  facet normal 0 0 -1
    outer loop
      vertex 4.39296 -16.5 0
      vertex 4.73484 -16.1853 0
      vertex 35 -16.5 0
    endloop
  endfacet
  facet normal 0 0 -1
    outer loop
      vertex 6 -12.5 0
      vertex 35 16.5 0
      vertex 5.6749 -14.4482 0
    endloop
  endfacet
  facet normal 0 0 -1
    outer loop
      vertex 5.6749 -10.5518 0
      vertex 35 16.5 0
      vertex 6 -12.5 0
    endloop
  endfacet
  facet normal 0 0 -1
    outer loop
      vertex -26.1499 -10.9563 0
      vertex -4.38619 -16.5 0
      vertex -27.9625 -11.2169 0
    endloop
  endfacet
  facet normal 0 0 -1
    outer loop
      vertex -0.495476 -6.52049 0
      vertex -35 16.5 0
      vertex 1.47291 -6.6836 0
    endloop
  endfacet
  facet normal 0 0 -1
    outer loop
      vertex 1.47291 -6.6836 0
      vertex -35 16.5 0
      vertex 3.28169 -7.477 0
    endloop
  endfacet
  facet normal 0 0 -1
    outer loop
      vertex 4.73484 -8.81472 0
      vertex 3.28169 -7.477 0
      vertex 35 16.5 0
    endloop
  endfacet
  facet normal 0 0 -1
    outer loop
      vertex -2.41017 -7.00536 0
      vertex -35 16.5 0
      vertex -0.495476 -6.52049 0
    endloop
  endfacet
  facet normal 0 0 -1
    outer loop
      vertex -4.06369 -8.08566 0
      vertex -35 16.5 0
      vertex -2.41017 -7.00536 0
    endloop
  endfacet
  facet normal 0 0 -1
    outer loop
      vertex -5.27684 -9.64432 0
      vertex -35 16.5 0
      vertex -4.06369 -8.08566 0
    endloop
  endfacet
  facet normal 0 0 -1
    outer loop
      vertex -5.91817 -11.5124 0
      vertex -35 16.5 0
      vertex -5.27684 -9.64432 0
    endloop
  endfacet
  facet normal 0 0 -1
    outer loop
      vertex -5.91817 -13.4876 0
      vertex -35 16.5 0
      vertex -5.91817 -11.5124 0
    endloop
  endfacet
  facet normal 0 0 -1
    outer loop
      vertex -5.27684 -15.3557 0
      vertex -35 16.5 0
      vertex -5.91817 -13.4876 0
    endloop
  endfacet
  facet normal 0 0 -1
    outer loop
      vertex -4.38619 -16.5 0
      vertex -35 16.5 0
      vertex -5.27684 -15.3557 0
    endloop
  endfacet
  facet normal 0 0 -1
    outer loop
      vertex -35 -16.5 0
      vertex -35 16.5 0
      vertex -30.6184 -7.08437 0
    endloop
  endfacet
  facet normal 0 0 -1
    outer loop
      vertex -35 -16.5 0
      vertex -30.6184 -7.08437 0
      vertex -30.6184 -8.91563 0
    endloop
  endfacet
  facet normal 0 0 -1
    outer loop
      vertex -35 -16.5 0
      vertex -30.6184 -8.91563 0
      vertex -29.6283 -10.4562 0
    endloop
  endfacet
  facet normal 0 0 -1
    outer loop
      vertex -35 -16.5 0
      vertex -29.6283 -10.4562 0
      vertex -27.9625 -11.2169 0
    endloop
  endfacet
  facet normal 0 0 -1
    outer loop
      vertex -35 -16.5 0
      vertex -27.9625 -11.2169 0
      vertex -4.38619 -16.5 0
    endloop
  endfacet
  facet normal 0 0 -1
    outer loop
      vertex -24.7659 -9.75708 0
      vertex -4.38619 -16.5 0
      vertex -26.1499 -10.9563 0
    endloop
  endfacet
  facet normal 0 0 -1
    outer loop
      vertex -24.25 -8 0
      vertex -4.38619 -16.5 0
      vertex -24.7659 -9.75708 0
    endloop
  endfacet
  facet normal 0 0 -1
    outer loop
      vertex -19.5225 8.29178 0
      vertex 3.28169 -7.477 0
      vertex -21.375 8.61843 0
    endloop
  endfacet
  facet normal 0 0 -1
    outer loop
      vertex -26.1499 -5.0437 0
      vertex -35 16.5 0
      vertex -24.7659 -6.24292 0
    endloop
  endfacet
  facet normal 0 0 -1
    outer loop
      vertex -24.25 -8 0
      vertex -24.7659 -6.24292 0
      vertex -4.38619 -16.5 0
    endloop
  endfacet
  facet normal 0 0 -1
    outer loop
      vertex -27.9625 -4.78308 0
      vertex -35 16.5 0
      vertex -26.1499 -5.0437 0
    endloop
  endfacet
  facet normal 0 0 -1
    outer loop
      vertex -29.6283 -5.54381 0
      vertex -35 16.5 0
      vertex -27.9625 -4.78308 0
    endloop
  endfacet
  facet normal 0 0 -1
    outer loop
      vertex -30.6184 -7.08437 0
      vertex -35 16.5 0
      vertex -29.6283 -5.54381 0
    endloop
  endfacet
  facet normal 0 0 -1
    outer loop
      vertex -22.5842 10.0594 0
      vertex -35 16.5 0
      vertex -22.5842 11.9406 0
    endloop
  endfacet
  facet normal 0 0 -1
    outer loop
      vertex -21.375 8.61843 0
      vertex -35 16.5 0
      vertex -22.5842 10.0594 0
    endloop
  endfacet
  facet normal 0 0 -1
    outer loop
      vertex 3.28169 -7.477 0
      vertex -35 16.5 0
      vertex -21.375 8.61843 0
    endloop
  endfacet
  facet normal 0 0 -1
    outer loop
      vertex -17.8934 9.23233 0
      vertex 3.28169 -7.477 0
      vertex -19.5225 8.29178 0
    endloop
  endfacet
  facet normal 0 0 -1
    outer loop
      vertex -17.8934 12.7677 0
      vertex 35 16.5 0
      vertex -17.25 11 0
    endloop
  endfacet
  facet normal 0 0 -1
    outer loop
      vertex 20.4775 13.7082 0
      vertex -17.8934 9.23233 0
      vertex 35 16.5 0
    endloop
  endfacet
  facet normal 0 0 -1
    outer loop
      vertex -17.8934 9.23233 0
      vertex -17.25 11 0
      vertex 35 16.5 0
    endloop
  endfacet
  facet normal 0 0 -1
    outer loop
      vertex 22.75 11 0
      vertex 35 16.5 0
      vertex 22.1066 9.23233 0
    endloop
  endfacet
  facet normal 0 0 -1
    outer loop
      vertex -21.375 13.3816 0
      vertex -35 16.5 0
      vertex -19.5225 13.7082 0
    endloop
  endfacet
  facet normal 0 0 -1
    outer loop
      vertex -17.8934 12.7677 0
      vertex -19.5225 13.7082 0
      vertex 35 16.5 0
    endloop
  endfacet
  facet normal 0 0 -1
    outer loop
      vertex -22.5842 11.9406 0
      vertex -35 16.5 0
      vertex -21.375 13.3816 0
    endloop
  endfacet
  facet normal 0 0 -1
    outer loop
      vertex 3.28169 -7.477 0
      vertex -17.8934 9.23233 0
      vertex 17.4158 11.9406 0
    endloop
  endfacet
  facet normal 0 0 -1
    outer loop
      vertex 3.28169 -7.477 0
      vertex 17.4158 11.9406 0
      vertex 17.4158 10.0594 0
    endloop
  endfacet
  facet normal 0 0 -1
    outer loop
      vertex 3.28169 -7.477 0
      vertex 17.4158 10.0594 0
      vertex 18.625 8.61843 0
    endloop
  endfacet
  facet normal 0 0 -1
    outer loop
      vertex 3.28169 -7.477 0
      vertex 18.625 8.61843 0
      vertex 20.4775 8.29178 0
    endloop
  endfacet
  facet normal 0 0 -1
    outer loop
      vertex 3.28169 -7.477 0
      vertex 20.4775 8.29178 0
      vertex 35 16.5 0
    endloop
  endfacet
  facet normal 0 0 -1
    outer loop
      vertex 20.4775 8.29178 0
      vertex 22.1066 9.23233 0
      vertex 35 16.5 0
    endloop
  endfacet
  facet normal 0 0 -1
    outer loop
      vertex 22.1066 12.7677 0
      vertex 35 16.5 0
      vertex 22.75 11 0
    endloop
  endfacet
  facet normal 0 0 -1
    outer loop
      vertex 20.4775 13.7082 0
      vertex 35 16.5 0
      vertex 22.1066 12.7677 0
    endloop
  endfacet
  facet normal 0 0 -1
    outer loop
      vertex 18.625 13.3816 0
      vertex -17.8934 9.23233 0
      vertex 20.4775 13.7082 0
    endloop
  endfacet
  facet normal 0 0 -1
    outer loop
      vertex 28.8501 -10.9563 0
      vertex 35 -16.5 0
      vertex 27.0375 -11.2169 0
    endloop
  endfacet
  facet normal 0 0 -1
    outer loop
      vertex 17.4158 11.9406 0
      vertex -17.8934 9.23233 0
      vertex 18.625 13.3816 0
    endloop
  endfacet
  facet normal 0 0 -1
    outer loop
      vertex 4.73484 -16.1853 0
      vertex 35 16.5 0
      vertex 24.3816 -7.08437 0
    endloop
  endfacet
  facet normal 0 0 -1
    outer loop
      vertex 4.73484 -16.1853 0
      vertex 24.3816 -7.08437 0
      vertex 24.3816 -8.91563 0
    endloop
  endfacet
  facet normal 0 0 -1
    outer loop
      vertex 4.73484 -16.1853 0
      vertex 24.3816 -8.91563 0
      vertex 25.3717 -10.4562 0
    endloop
  endfacet
  facet normal 0 0 -1
    outer loop
      vertex 4.73484 -16.1853 0
      vertex 25.3717 -10.4562 0
      vertex 35 -16.5 0
    endloop
  endfacet
  facet normal 0 0 -1
    outer loop
      vertex 25.3717 -10.4562 0
      vertex 27.0375 -11.2169 0
      vertex 35 -16.5 0
    endloop
  endfacet
  facet normal 0 0 -1
    outer loop
      vertex 30.2341 -6.24292 0
      vertex 35 16.5 0
      vertex 30.75 -8 0
    endloop
  endfacet
  facet normal 0 0 -1
    outer loop
      vertex 28.8501 -5.0437 0
      vertex 35 16.5 0
      vertex 30.2341 -6.24292 0
    endloop
  endfacet
  facet normal 0 0 -1
    outer loop
      vertex 28.8501 -10.9563 0
      vertex 30.2341 -9.75708 0
      vertex 35 -16.5 0
    endloop
  endfacet
  facet normal 0 0 -1
    outer loop
      vertex 30.2341 -9.75708 0
      vertex 30.75 -8 0
      vertex 35 -16.5 0
    endloop
  endfacet
  facet normal 0 0 -1
    outer loop
      vertex 27.0375 -4.78308 0
      vertex 35 16.5 0
      vertex 28.8501 -5.0437 0
    endloop
  endfacet
  facet normal 0 0 -1
    outer loop
      vertex 25.3717 -5.54381 0
      vertex 35 16.5 0
      vertex 27.0375 -4.78308 0
    endloop
  endfacet
  facet normal 0 0 -1
    outer loop
      vertex 24.3816 -7.08437 0
      vertex 35 16.5 0
      vertex 25.3717 -5.54381 0
    endloop
  endfacet
  facet normal 0 0 -1
    outer loop
      vertex 5.6749 -14.4482 0
      vertex 35 16.5 0
      vertex 4.73484 -16.1853 0
    endloop
  endfacet
  facet normal 0 1 0
    outer loop
      vertex -35 16.5 0
      vertex -35 16.5 13
      vertex 35 16.5 0
    endloop
  endfacet
  facet normal 0 1 0
    outer loop
      vertex 35 16.5 0
      vertex -35 16.5 13
      vertex 35 16.5 13
    endloop
  endfacet
  facet normal 0 0 1
    outer loop
      vertex 0.477532 -15.2082 13
      vertex -35 -16.5 13
      vertex 35 -16.5 13
    endloop
  endfacet
  facet normal 0 0 1
    outer loop
      vertex -19.5225 13.7082 13
      vertex -17.8934 12.7677 13
      vertex 35 16.5 13
    endloop
  endfacet
  facet normal 0 0 1
    outer loop
      vertex -2.58415 -11.5594 13
      vertex -1.375 -10.1184 13
      vertex -21.65 -8 13
    endloop
  endfacet
  facet normal 0 0 1
    outer loop
      vertex -33.35 -8 13
      vertex -35 -16.5 13
      vertex -30.425 -13.0662 13
    endloop
  endfacet
  facet normal 0 0 1
    outer loop
      vertex -24.575 -2.93375 13
      vertex 0.477532 -9.79178 13
      vertex 35 -16.5 13
    endloop
  endfacet
  facet normal 0 0 1
    outer loop
      vertex -35 16.5 13
      vertex -35 -16.5 13
      vertex -33.35 -8 13
    endloop
  endfacet
  facet normal 0 0 1
    outer loop
      vertex -1.375 -14.8816 13
      vertex -2.58415 -13.4406 13
      vertex -24.575 -13.0662 13
    endloop
  endfacet
  facet normal 0 0 1
    outer loop
      vertex 24.575 -13.0662 13
      vertex -24.575 -2.93375 13
      vertex 35 -16.5 13
    endloop
  endfacet
  facet normal 0 0 1
    outer loop
      vertex -35 16.5 13
      vertex -30.425 -2.93375 13
      vertex -24.575 -2.93375 13
    endloop
  endfacet
  facet normal 0 0 1
    outer loop
      vertex 0.477532 -9.79178 13
      vertex 2.10662 -10.7323 13
      vertex 35 -16.5 13
    endloop
  endfacet
  facet normal 0 0 1
    outer loop
      vertex -1.375 -14.8816 13
      vertex -24.575 -13.0662 13
      vertex -30.425 -13.0662 13
    endloop
  endfacet
  facet normal 0 0 1
    outer loop
      vertex -35 16.5 13
      vertex -24.575 -2.93375 13
      vertex -22.5842 10.0594 13
    endloop
  endfacet
  facet normal 0 0 1
    outer loop
      vertex 24.575 -2.93375 13
      vertex 18.625 8.61843 13
      vertex 17.4158 10.0594 13
    endloop
  endfacet
  facet normal 0 0 1
    outer loop
      vertex -21.375 13.3816 13
      vertex -35 16.5 13
      vertex -22.5842 11.9406 13
    endloop
  endfacet
  facet normal 0 0 1
    outer loop
      vertex -19.5225 13.7082 13
      vertex -35 16.5 13
      vertex -21.375 13.3816 13
    endloop
  endfacet
  facet normal 0 0 1
    outer loop
      vertex -17.8934 12.7677 13
      vertex -17.25 11 13
      vertex 35 16.5 13
    endloop
  endfacet
  facet normal 0 0 1
    outer loop
      vertex 35 16.5 13
      vertex -35 16.5 13
      vertex -19.5225 13.7082 13
    endloop
  endfacet
  facet normal 0 0 1
    outer loop
      vertex 24.575 -2.93375 13
      vertex 20.4775 8.29178 13
      vertex 18.625 8.61843 13
    endloop
  endfacet
  facet normal 0 0 1
    outer loop
      vertex 24.575 -2.93375 13
      vertex 22.1066 9.23233 13
      vertex 20.4775 8.29178 13
    endloop
  endfacet
  facet normal 0 0 1
    outer loop
      vertex 20.4775 13.7082 13
      vertex 22.1066 12.7677 13
      vertex 35 16.5 13
    endloop
  endfacet
  facet normal 0 0 1
    outer loop
      vertex -21.375 8.61843 13
      vertex -24.575 -2.93375 13
      vertex -19.5225 8.29178 13
    endloop
  endfacet
  facet normal 0 0 1
    outer loop
      vertex -22.5842 10.0594 13
      vertex -24.575 -2.93375 13
      vertex -21.375 8.61843 13
    endloop
  endfacet
  facet normal 0 0 1
    outer loop
      vertex 2.10662 -14.2677 13
      vertex 0.477532 -15.2082 13
      vertex 35 -16.5 13
    endloop
  endfacet
  facet normal 0 0 1
    outer loop
      vertex -21.65 -8 13
      vertex -24.575 -13.0662 13
      vertex -2.58415 -13.4406 13
    endloop
  endfacet
  facet normal 0 0 1
    outer loop
      vertex 24.575 -13.0662 13
      vertex 21.65 -8 13
      vertex -17.25 11 13
    endloop
  endfacet
  facet normal 0 0 1
    outer loop
      vertex -21.65 -8 13
      vertex -2.58415 -13.4406 13
      vertex -2.58415 -11.5594 13
    endloop
  endfacet
  facet normal 0 0 1
    outer loop
      vertex 2.10662 -10.7323 13
      vertex 2.75 -12.5 13
      vertex 35 -16.5 13
    endloop
  endfacet
  facet normal 0 0 1
    outer loop
      vertex -22.5842 10.0594 13
      vertex -22.5842 11.9406 13
      vertex -35 16.5 13
    endloop
  endfacet
  facet normal 0 0 1
    outer loop
      vertex 2.75 -12.5 13
      vertex 2.10662 -14.2677 13
      vertex 35 -16.5 13
    endloop
  endfacet
  facet normal 0 0 1
    outer loop
      vertex -30.425 -13.0662 13
      vertex -35 -16.5 13
      vertex 0.477532 -15.2082 13
    endloop
  endfacet
  facet normal 0 0 1
    outer loop
      vertex -30.425 -13.0662 13
      vertex 0.477532 -15.2082 13
      vertex -1.375 -14.8816 13
    endloop
  endfacet
  facet normal 0 0 1
    outer loop
      vertex 17.4158 11.9406 13
      vertex -17.25 11 13
      vertex 17.4158 10.0594 13
    endloop
  endfacet
  facet normal 0 0 1
    outer loop
      vertex 18.625 13.3816 13
      vertex -17.25 11 13
      vertex 17.4158 11.9406 13
    endloop
  endfacet
  facet normal 0 0 1
    outer loop
      vertex 35 16.5 13
      vertex -17.25 11 13
      vertex 18.625 13.3816 13
    endloop
  endfacet
  facet normal 0 0 1
    outer loop
      vertex 22.1066 12.7677 13
      vertex 22.75 11 13
      vertex 35 16.5 13
    endloop
  endfacet
  facet normal 0 0 1
    outer loop
      vertex 35 16.5 13
      vertex 18.625 13.3816 13
      vertex 20.4775 13.7082 13
    endloop
  endfacet
  facet normal 0 0 1
    outer loop
      vertex 24.575 -13.0662 13
      vertex -17.25 11 13
      vertex -17.8934 9.23233 13
    endloop
  endfacet
  facet normal 0 0 1
    outer loop
      vertex 24.575 -13.0662 13
      vertex -17.8934 9.23233 13
      vertex -19.5225 8.29178 13
    endloop
  endfacet
  facet normal 0 0 1
    outer loop
      vertex 33.35 -8 13
      vertex 30.425 -13.0662 13
      vertex 35 -16.5 13
    endloop
  endfacet
  facet normal 0 0 1
    outer loop
      vertex -19.5225 8.29178 13
      vertex -24.575 -2.93375 13
      vertex 24.575 -13.0662 13
    endloop
  endfacet
  facet normal 0 0 1
    outer loop
      vertex 24.575 -2.93375 13
      vertex 22.75 11 13
      vertex 22.1066 9.23233 13
    endloop
  endfacet
  facet normal 0 0 1
    outer loop
      vertex 17.4158 10.0594 13
      vertex -17.25 11 13
      vertex 21.65 -8 13
    endloop
  endfacet
  facet normal 0 0 1
    outer loop
      vertex 17.4158 10.0594 13
      vertex 21.65 -8 13
      vertex 24.575 -2.93375 13
    endloop
  endfacet
  facet normal 0 0 1
    outer loop
      vertex 35 16.5 13
      vertex 22.75 11 13
      vertex 30.425 -2.93375 13
    endloop
  endfacet
  facet normal 0 0 1
    outer loop
      vertex 35 16.5 13
      vertex 33.35 -8 13
      vertex 35 -16.5 13
    endloop
  endfacet
  facet normal 0 0 1
    outer loop
      vertex 35 16.5 13
      vertex 30.425 -2.93375 13
      vertex 33.35 -8 13
    endloop
  endfacet
  facet normal 0 0 1
    outer loop
      vertex -33.35 -8 13
      vertex -30.425 -2.93375 13
      vertex -35 16.5 13
    endloop
  endfacet
  facet normal 0 0 1
    outer loop
      vertex -24.575 -2.93375 13
      vertex -1.375 -10.1184 13
      vertex 0.477532 -9.79178 13
    endloop
  endfacet
  facet normal 0 0 1
    outer loop
      vertex -24.575 -2.93375 13
      vertex -21.65 -8 13
      vertex -1.375 -10.1184 13
    endloop
  endfacet
  facet normal 0 0 1
    outer loop
      vertex 30.425 -13.0662 13
      vertex 24.575 -13.0662 13
      vertex 35 -16.5 13
    endloop
  endfacet
  facet normal 0 0 1
    outer loop
      vertex 24.575 -2.93375 13
      vertex 30.425 -2.93375 13
      vertex 22.75 11 13
    endloop
  endfacet
  facet normal 1 0 0
    outer loop
      vertex 35 -16.5 13
      vertex 35 -16.5 0
      vertex 35 16.5 0
    endloop
  endfacet
  facet normal 1 0 0
    outer loop
      vertex 35 16.5 13
      vertex 35 -16.5 13
      vertex 35 16.5 0
    endloop
  endfacet
  facet normal -0.677282 0.735724 0
    outer loop
      vertex 4.73484 -16.1853 7
      vertex 4.73484 -16.1853 0
      vertex 4.39296 -16.5 7
    endloop
  endfacet
  facet normal -0.677282 0.735724 0
    outer loop
      vertex 4.39296 -16.5 7
      vertex 4.73484 -16.1853 0
      vertex 4.39296 -16.5 0
    endloop
  endfacet
  facet normal 0 0 -1
    outer loop
      vertex -5.27684 -9.64432 7
      vertex -4.06369 -8.08566 7
      vertex -5.91817 -11.5124 7
    endloop
  endfacet
  facet normal 0 0 -1
    outer loop
      vertex -5.91817 -11.5124 7
      vertex -4.06369 -8.08566 7
      vertex -2.41017 -7.00536 7
    endloop
  endfacet
  facet normal 0 0 -1
    outer loop
      vertex -5.91817 -11.5124 7
      vertex -2.41017 -7.00536 7
      vertex -0.495476 -6.52049 7
    endloop
  endfacet
  facet normal 0 0 -1
    outer loop
      vertex -5.91817 -11.5124 7
      vertex -0.495476 -6.52049 7
      vertex 1.47291 -6.6836 7
    endloop
  endfacet
  facet normal 0 0 -1
    outer loop
      vertex -5.91817 -11.5124 7
      vertex 1.47291 -6.6836 7
      vertex 3.28169 -7.477 7
    endloop
  endfacet
  facet normal 0 0 -1
    outer loop
      vertex -5.91817 -11.5124 7
      vertex 3.28169 -7.477 7
      vertex 4.73484 -8.81472 7
    endloop
  endfacet
  facet normal 0 0 -1
    outer loop
      vertex -5.91817 -11.5124 7
      vertex 4.73484 -8.81472 7
      vertex 5.6749 -10.5518 7
    endloop
  endfacet
  facet normal 0 0 -1
    outer loop
      vertex -5.91817 -11.5124 7
      vertex 5.6749 -10.5518 7
      vertex 6 -12.5 7
    endloop
  endfacet
  facet normal 0 0 -1
    outer loop
      vertex -5.91817 -11.5124 7
      vertex 6 -12.5 7
      vertex 5.6749 -14.4482 7
    endloop
  endfacet
  facet normal 0 0 -1
    outer loop
      vertex -5.91817 -11.5124 7
      vertex 5.6749 -14.4482 7
      vertex 4.73484 -16.1853 7
    endloop
  endfacet
  facet normal 0 0 -1
    outer loop
      vertex -5.91817 -11.5124 7
      vertex 4.73484 -16.1853 7
      vertex 4.39296 -16.5 7
    endloop
  endfacet
  facet normal 0 0 -1
    outer loop
      vertex -5.91817 -11.5124 7
      vertex 4.39296 -16.5 7
      vertex -4.38619 -16.5 7
    endloop
  endfacet
  facet normal 0 0 -1
    outer loop
      vertex -5.91817 -11.5124 7
      vertex -4.38619 -16.5 7
      vertex -5.27684 -15.3557 7
    endloop
  endfacet
  facet normal 0 0 -1
    outer loop
      vertex -5.91817 -11.5124 7
      vertex -5.27684 -15.3557 7
      vertex -5.91817 -13.4876 7
    endloop
  endfacet
  facet normal 0.78914 0.614213 0
    outer loop
      vertex -5.27684 -15.3557 7
      vertex -4.38619 -16.5 7
      vertex -4.38619 -16.5 0
    endloop
  endfacet
  facet normal 0.78914 0.614213 0
    outer loop
      vertex -5.27684 -15.3557 0
      vertex -5.27684 -15.3557 7
      vertex -4.38619 -16.5 0
    endloop
  endfacet
  facet normal 0.945817 0.324699 0
    outer loop
      vertex -5.91817 -13.4876 7
      vertex -5.27684 -15.3557 7
      vertex -5.27684 -15.3557 0
    endloop
  endfacet
  facet normal 0.945817 0.324699 0
    outer loop
      vertex -5.91817 -13.4876 0
      vertex -5.91817 -13.4876 7
      vertex -5.27684 -15.3557 0
    endloop
  endfacet
  facet normal 1 0 0
    outer loop
      vertex -5.91817 -11.5124 0
      vertex -5.91817 -11.5124 7
      vertex -5.91817 -13.4876 7
    endloop
  endfacet
  facet normal 1 0 0
    outer loop
      vertex -5.91817 -13.4876 0
      vertex -5.91817 -11.5124 0
      vertex -5.91817 -13.4876 7
    endloop
  endfacet
  facet normal 0.945817 -0.324699 0
    outer loop
      vertex -5.27684 -9.64432 0
      vertex -5.27684 -9.64432 7
      vertex -5.91817 -11.5124 7
    endloop
  endfacet
  facet normal 0.945817 -0.324699 0
    outer loop
      vertex -5.91817 -11.5124 0
      vertex -5.27684 -9.64432 0
      vertex -5.91817 -11.5124 7
    endloop
  endfacet
  facet normal 0.78914 -0.614213 0
    outer loop
      vertex -4.06369 -8.08566 0
      vertex -4.06369 -8.08566 7
      vertex -5.27684 -9.64432 7
    endloop
  endfacet
  facet normal 0.78914 -0.614213 0
    outer loop
      vertex -5.27684 -9.64432 0
      vertex -4.06369 -8.08566 0
      vertex -5.27684 -9.64432 7
    endloop
  endfacet
  facet normal 0.546949 -0.837166 0
    outer loop
      vertex -2.41017 -7.00536 0
      vertex -2.41017 -7.00536 7
      vertex -4.06369 -8.08566 7
    endloop
  endfacet
  facet normal 0.546949 -0.837166 0
    outer loop
      vertex -4.06369 -8.08566 0
      vertex -2.41017 -7.00536 0
      vertex -4.06369 -8.08566 7
    endloop
  endfacet
  facet normal 0.245485 -0.9694 0
    outer loop
      vertex -0.495476 -6.52049 0
      vertex -0.495476 -6.52049 7
      vertex -2.41017 -7.00536 7
    endloop
  endfacet
  facet normal 0.245485 -0.9694 0
    outer loop
      vertex -2.41017 -7.00536 0
      vertex -0.495476 -6.52049 0
      vertex -2.41017 -7.00536 7
    endloop
  endfacet
  facet normal -0.0825792 -0.996585 0
    outer loop
      vertex 1.47291 -6.6836 0
      vertex 1.47291 -6.6836 7
      vertex -0.495476 -6.52049 7
    endloop
  endfacet
  facet normal -0.0825792 -0.996585 0
    outer loop
      vertex -0.495476 -6.52049 0
      vertex 1.47291 -6.6836 0
      vertex -0.495476 -6.52049 7
    endloop
  endfacet
  facet normal -0.401696 -0.915773 0
    outer loop
      vertex 3.28169 -7.477 0
      vertex 3.28169 -7.477 7
      vertex 1.47291 -6.6836 7
    endloop
  endfacet
  facet normal -0.401696 -0.915773 0
    outer loop
      vertex 1.47291 -6.6836 0
      vertex 3.28169 -7.477 0
      vertex 1.47291 -6.6836 7
    endloop
  endfacet
  facet normal -0.677282 -0.735724 0
    outer loop
      vertex 4.73484 -8.81472 0
      vertex 4.73484 -8.81472 7
      vertex 3.28169 -7.477 7
    endloop
  endfacet
  facet normal -0.677282 -0.735724 0
    outer loop
      vertex 3.28169 -7.477 0
      vertex 4.73484 -8.81472 0
      vertex 3.28169 -7.477 7
    endloop
  endfacet
  facet normal -0.879474 -0.475947 0
    outer loop
      vertex 5.6749 -10.5518 7
      vertex 4.73484 -8.81472 7
      vertex 5.6749 -10.5518 0
    endloop
  endfacet
  facet normal -0.879474 -0.475947 0
    outer loop
      vertex 5.6749 -10.5518 0
      vertex 4.73484 -8.81472 7
      vertex 4.73484 -8.81472 0
    endloop
  endfacet
  facet normal -0.986361 -0.164595 0
    outer loop
      vertex 6 -12.5 7
      vertex 5.6749 -10.5518 7
      vertex 6 -12.5 0
    endloop
  endfacet
  facet normal -0.986361 -0.164595 0
    outer loop
      vertex 6 -12.5 0
      vertex 5.6749 -10.5518 7
      vertex 5.6749 -10.5518 0
    endloop
  endfacet
  facet normal -0.986361 0.164595 0
    outer loop
      vertex 6 -12.5 7
      vertex 6 -12.5 0
      vertex 5.6749 -14.4482 7
    endloop
  endfacet
  facet normal -0.986361 0.164595 0
    outer loop
      vertex 5.6749 -14.4482 7
      vertex 6 -12.5 0
      vertex 5.6749 -14.4482 0
    endloop
  endfacet
  facet normal -0.879474 0.475947 0
    outer loop
      vertex 5.6749 -14.4482 7
      vertex 5.6749 -14.4482 0
      vertex 4.73484 -16.1853 7
    endloop
  endfacet
  facet normal -0.879474 0.475947 0
    outer loop
      vertex 4.73484 -16.1853 7
      vertex 5.6749 -14.4482 0
      vertex 4.73484 -16.1853 0
    endloop
  endfacet
  facet normal 1 0 0
    outer loop
      vertex -30.6184 -7.08437 0
      vertex -30.6184 -7.08437 5.5
      vertex -30.6184 -8.91563 5.5
    endloop
  endfacet
  facet normal 1 0 0
    outer loop
      vertex -30.6184 -8.91563 0
      vertex -30.6184 -7.08437 0
      vertex -30.6184 -8.91563 5.5
    endloop
  endfacet
  facet normal 0.841253 -0.540641 0
    outer loop
      vertex -29.6283 -5.54381 0
      vertex -29.6283 -5.54381 5.5
      vertex -30.6184 -7.08437 5.5
    endloop
  endfacet
  facet normal 0.841253 -0.540641 0
    outer loop
      vertex -30.6184 -7.08437 0
      vertex -29.6283 -5.54381 0
      vertex -30.6184 -7.08437 5.5
    endloop
  endfacet
  facet normal 0.415415 -0.909632 0
    outer loop
      vertex -27.9625 -4.78308 0
      vertex -27.9625 -4.78308 5.5
      vertex -29.6283 -5.54381 5.5
    endloop
  endfacet
  facet normal 0.415415 -0.909632 0
    outer loop
      vertex -29.6283 -5.54381 0
      vertex -27.9625 -4.78308 0
      vertex -29.6283 -5.54381 5.5
    endloop
  endfacet
  facet normal -0.142315 -0.989821 0
    outer loop
      vertex -26.1499 -5.0437 0
      vertex -26.1499 -5.0437 5.5
      vertex -27.9625 -4.78308 5.5
    endloop
  endfacet
  facet normal -0.142315 -0.989821 0
    outer loop
      vertex -27.9625 -4.78308 0
      vertex -26.1499 -5.0437 0
      vertex -27.9625 -4.78308 5.5
    endloop
  endfacet
  facet normal -0.654861 -0.75575 0
    outer loop
      vertex -24.7659 -6.24292 0
      vertex -24.7659 -6.24292 5.5
      vertex -26.1499 -5.0437 5.5
    endloop
  endfacet
  facet normal -0.654861 -0.75575 0
    outer loop
      vertex -26.1499 -5.0437 0
      vertex -24.7659 -6.24292 0
      vertex -26.1499 -5.0437 5.5
    endloop
  endfacet
  facet normal -0.959493 -0.281732 0
    outer loop
      vertex -24.25 -8 5.5
      vertex -24.7659 -6.24292 5.5
      vertex -24.25 -8 0
    endloop
  endfacet
  facet normal -0.959493 -0.281732 0
    outer loop
      vertex -24.25 -8 0
      vertex -24.7659 -6.24292 5.5
      vertex -24.7659 -6.24292 0
    endloop
  endfacet
  facet normal -0.959493 0.281732 0
    outer loop
      vertex -24.25 -8 5.5
      vertex -24.25 -8 0
      vertex -24.7659 -9.75708 5.5
    endloop
  endfacet
  facet normal -0.959493 0.281732 0
    outer loop
      vertex -24.7659 -9.75708 5.5
      vertex -24.25 -8 0
      vertex -24.7659 -9.75708 0
    endloop
  endfacet
  facet normal -0.654861 0.75575 0
    outer loop
      vertex -24.7659 -9.75708 5.5
      vertex -24.7659 -9.75708 0
      vertex -26.1499 -10.9563 5.5
    endloop
  endfacet
  facet normal -0.654861 0.75575 0
    outer loop
      vertex -26.1499 -10.9563 5.5
      vertex -24.7659 -9.75708 0
      vertex -26.1499 -10.9563 0
    endloop
  endfacet
  facet normal -0.142315 0.989821 0
    outer loop
      vertex -26.1499 -10.9563 5.5
      vertex -26.1499 -10.9563 0
      vertex -27.9625 -11.2169 5.5
    endloop
  endfacet
  facet normal -0.142315 0.989821 0
    outer loop
      vertex -27.9625 -11.2169 5.5
      vertex -26.1499 -10.9563 0
      vertex -27.9625 -11.2169 0
    endloop
  endfacet
  facet normal 0.415415 0.909632 0
    outer loop
      vertex -27.9625 -11.2169 5.5
      vertex -27.9625 -11.2169 0
      vertex -29.6283 -10.4562 5.5
    endloop
  endfacet
  facet normal 0.415415 0.909632 0
    outer loop
      vertex -29.6283 -10.4562 5.5
      vertex -27.9625 -11.2169 0
      vertex -29.6283 -10.4562 0
    endloop
  endfacet
  facet normal 0.841253 0.540641 0
    outer loop
      vertex -30.6184 -8.91563 5.5
      vertex -29.6283 -10.4562 5.5
      vertex -29.6283 -10.4562 0
    endloop
  endfacet
  facet normal 0.841253 0.540641 0
    outer loop
      vertex -30.6184 -8.91563 0
      vertex -30.6184 -8.91563 5.5
      vertex -29.6283 -10.4562 0
    endloop
  endfacet
  facet normal 0.766044 -0.642788 0
    outer loop
      vertex -21.375 13.3816 0
      vertex -21.375 13.3816 13
      vertex -22.5842 11.9406 13
    endloop
  endfacet
  facet normal 0.766044 -0.642788 0
    outer loop
      vertex -22.5842 11.9406 0
      vertex -21.375 13.3816 0
      vertex -22.5842 11.9406 13
    endloop
  endfacet
  facet normal 1 0 0
    outer loop
      vertex -22.5842 11.9406 0
      vertex -22.5842 11.9406 13
      vertex -22.5842 10.0594 13
    endloop
  endfacet
  facet normal 1 0 0
    outer loop
      vertex -22.5842 10.0594 0
      vertex -22.5842 11.9406 0
      vertex -22.5842 10.0594 13
    endloop
  endfacet
  facet normal 0.173648 -0.984808 0
    outer loop
      vertex -19.5225 13.7082 0
      vertex -19.5225 13.7082 13
      vertex -21.375 13.3816 13
    endloop
  endfacet
  facet normal 0.173648 -0.984808 0
    outer loop
      vertex -21.375 13.3816 0
      vertex -19.5225 13.7082 0
      vertex -21.375 13.3816 13
    endloop
  endfacet
  facet normal -0.5 -0.866026 0
    outer loop
      vertex -17.8934 12.7677 0
      vertex -17.8934 12.7677 13
      vertex -19.5225 13.7082 13
    endloop
  endfacet
  facet normal -0.5 -0.866026 0
    outer loop
      vertex -19.5225 13.7082 0
      vertex -17.8934 12.7677 0
      vertex -19.5225 13.7082 13
    endloop
  endfacet
  facet normal -0.939693 -0.34202 0
    outer loop
      vertex -17.25 11 13
      vertex -17.8934 12.7677 13
      vertex -17.25 11 0
    endloop
  endfacet
  facet normal -0.939693 -0.34202 0
    outer loop
      vertex -17.25 11 0
      vertex -17.8934 12.7677 13
      vertex -17.8934 12.7677 0
    endloop
  endfacet
  facet normal -0.939693 0.34202 0
    outer loop
      vertex -17.25 11 13
      vertex -17.25 11 0
      vertex -17.8934 9.23233 13
    endloop
  endfacet
  facet normal -0.939693 0.34202 0
    outer loop
      vertex -17.8934 9.23233 13
      vertex -17.25 11 0
      vertex -17.8934 9.23233 0
    endloop
  endfacet
  facet normal -0.5 0.866026 0
    outer loop
      vertex -17.8934 9.23233 13
      vertex -17.8934 9.23233 0
      vertex -19.5225 8.29178 13
    endloop
  endfacet
  facet normal -0.5 0.866026 0
    outer loop
      vertex -19.5225 8.29178 13
      vertex -17.8934 9.23233 0
      vertex -19.5225 8.29178 0
    endloop
  endfacet
  facet normal 0.173648 0.984808 0
    outer loop
      vertex -19.5225 8.29178 13
      vertex -19.5225 8.29178 0
      vertex -21.375 8.61843 13
    endloop
  endfacet
  facet normal 0.173648 0.984808 0
    outer loop
      vertex -21.375 8.61843 13
      vertex -19.5225 8.29178 0
      vertex -21.375 8.61843 0
    endloop
  endfacet
  facet normal 0.766044 0.642788 0
    outer loop
      vertex -22.5842 10.0594 13
      vertex -21.375 8.61843 13
      vertex -21.375 8.61843 0
    endloop
  endfacet
  facet normal 0.766044 0.642788 0
    outer loop
      vertex -22.5842 10.0594 0
      vertex -22.5842 10.0594 13
      vertex -21.375 8.61843 0
    endloop
  endfacet
  facet normal 0.766044 -0.642788 0
    outer loop
      vertex 18.625 13.3816 0
      vertex 18.625 13.3816 13
      vertex 17.4158 11.9406 13
    endloop
  endfacet
  facet normal 0.766044 -0.642788 0
    outer loop
      vertex 17.4158 11.9406 0
      vertex 18.625 13.3816 0
      vertex 17.4158 11.9406 13
    endloop
  endfacet
  facet normal 1 0 0
    outer loop
      vertex 17.4158 11.9406 0
      vertex 17.4158 11.9406 13
      vertex 17.4158 10.0594 13
    endloop
  endfacet
  facet normal 1 0 0
    outer loop
      vertex 17.4158 10.0594 0
      vertex 17.4158 11.9406 0
      vertex 17.4158 10.0594 13
    endloop
  endfacet
  facet normal 0.173648 -0.984808 0
    outer loop
      vertex 20.4775 13.7082 0
      vertex 20.4775 13.7082 13
      vertex 18.625 13.3816 13
    endloop
  endfacet
  facet normal 0.173648 -0.984808 0
    outer loop
      vertex 18.625 13.3816 0
      vertex 20.4775 13.7082 0
      vertex 18.625 13.3816 13
    endloop
  endfacet
  facet normal -0.5 -0.866026 0
    outer loop
      vertex 22.1066 12.7677 0
      vertex 22.1066 12.7677 13
      vertex 20.4775 13.7082 13
    endloop
  endfacet
  facet normal -0.5 -0.866026 0
    outer loop
      vertex 20.4775 13.7082 0
      vertex 22.1066 12.7677 0
      vertex 20.4775 13.7082 13
    endloop
  endfacet
  facet normal -0.939693 -0.34202 0
    outer loop
      vertex 22.75 11 13
      vertex 22.1066 12.7677 13
      vertex 22.75 11 0
    endloop
  endfacet
  facet normal -0.939693 -0.34202 0
    outer loop
      vertex 22.75 11 0
      vertex 22.1066 12.7677 13
      vertex 22.1066 12.7677 0
    endloop
  endfacet
  facet normal -0.939693 0.34202 0
    outer loop
      vertex 22.75 11 13
      vertex 22.75 11 0
      vertex 22.1066 9.23233 13
    endloop
  endfacet
  facet normal -0.939693 0.34202 0
    outer loop
      vertex 22.1066 9.23233 13
      vertex 22.75 11 0
      vertex 22.1066 9.23233 0
    endloop
  endfacet
  facet normal -0.5 0.866026 0
    outer loop
      vertex 22.1066 9.23233 13
      vertex 22.1066 9.23233 0
      vertex 20.4775 8.29178 13
    endloop
  endfacet
  facet normal -0.5 0.866026 0
    outer loop
      vertex 20.4775 8.29178 13
      vertex 22.1066 9.23233 0
      vertex 20.4775 8.29178 0
    endloop
  endfacet
  facet normal 0.173648 0.984808 0
    outer loop
      vertex 20.4775 8.29178 13
      vertex 20.4775 8.29178 0
      vertex 18.625 8.61843 13
    endloop
  endfacet
  facet normal 0.173648 0.984808 0
    outer loop
      vertex 18.625 8.61843 13
      vertex 20.4775 8.29178 0
      vertex 18.625 8.61843 0
    endloop
  endfacet
  facet normal 0.766044 0.642788 0
    outer loop
      vertex 17.4158 10.0594 13
      vertex 18.625 8.61843 13
      vertex 18.625 8.61843 0
    endloop
  endfacet
  facet normal 0.766044 0.642788 0
    outer loop
      vertex 17.4158 10.0594 0
      vertex 17.4158 10.0594 13
      vertex 18.625 8.61843 0
    endloop
  endfacet
  facet normal 1 0 0
    outer loop
      vertex 24.3816 -7.08437 0
      vertex 24.3816 -7.08437 5.5
      vertex 24.3816 -8.91563 5.5
    endloop
  endfacet
  facet normal 1 0 0
    outer loop
      vertex 24.3816 -8.91563 0
      vertex 24.3816 -7.08437 0
      vertex 24.3816 -8.91563 5.5
    endloop
  endfacet
  facet normal 0.841253 -0.540641 0
    outer loop
      vertex 25.3717 -5.54381 0
      vertex 25.3717 -5.54381 5.5
      vertex 24.3816 -7.08437 5.5
    endloop
  endfacet
  facet normal 0.841253 -0.540641 0
    outer loop
      vertex 24.3816 -7.08437 0
      vertex 25.3717 -5.54381 0
      vertex 24.3816 -7.08437 5.5
    endloop
  endfacet
  facet normal 0.415415 -0.909632 0
    outer loop
      vertex 27.0375 -4.78308 0
      vertex 27.0375 -4.78308 5.5
      vertex 25.3717 -5.54381 5.5
    endloop
  endfacet
  facet normal 0.415415 -0.909632 0
    outer loop
      vertex 25.3717 -5.54381 0
      vertex 27.0375 -4.78308 0
      vertex 25.3717 -5.54381 5.5
    endloop
  endfacet
  facet normal -0.142315 -0.989821 0
    outer loop
      vertex 28.8501 -5.0437 0
      vertex 28.8501 -5.0437 5.5
      vertex 27.0375 -4.78308 5.5
    endloop
  endfacet
  facet normal -0.142315 -0.989821 0
    outer loop
      vertex 27.0375 -4.78308 0
      vertex 28.8501 -5.0437 0
      vertex 27.0375 -4.78308 5.5
    endloop
  endfacet
  facet normal -0.654861 -0.75575 0
    outer loop
      vertex 30.2341 -6.24292 0
      vertex 30.2341 -6.24292 5.5
      vertex 28.8501 -5.0437 5.5
    endloop
  endfacet
  facet normal -0.654861 -0.75575 0
    outer loop
      vertex 28.8501 -5.0437 0
      vertex 30.2341 -6.24292 0
      vertex 28.8501 -5.0437 5.5
    endloop
  endfacet
  facet normal -0.959493 -0.281732 0
    outer loop
      vertex 30.75 -8 5.5
      vertex 30.2341 -6.24292 5.5
      vertex 30.75 -8 0
    endloop
  endfacet
  facet normal -0.959493 -0.281732 0
    outer loop
      vertex 30.75 -8 0
      vertex 30.2341 -6.24292 5.5
      vertex 30.2341 -6.24292 0
    endloop
  endfacet
  facet normal -0.959493 0.281732 0
    outer loop
      vertex 30.75 -8 5.5
      vertex 30.75 -8 0
      vertex 30.2341 -9.75708 5.5
    endloop
  endfacet
  facet normal -0.959493 0.281732 0
    outer loop
      vertex 30.2341 -9.75708 5.5
      vertex 30.75 -8 0
      vertex 30.2341 -9.75708 0
    endloop
  endfacet
  facet normal -0.654861 0.75575 0
    outer loop
      vertex 30.2341 -9.75708 5.5
      vertex 30.2341 -9.75708 0
      vertex 28.8501 -10.9563 5.5
    endloop
  endfacet
  facet normal -0.654861 0.75575 0
    outer loop
      vertex 28.8501 -10.9563 5.5
      vertex 30.2341 -9.75708 0
      vertex 28.8501 -10.9563 0
    endloop
  endfacet
  facet normal -0.142315 0.989821 0
    outer loop
      vertex 28.8501 -10.9563 5.5
      vertex 28.8501 -10.9563 0
      vertex 27.0375 -11.2169 5.5
    endloop
  endfacet
  facet normal -0.142315 0.989821 0
    outer loop
      vertex 27.0375 -11.2169 5.5
      vertex 28.8501 -10.9563 0
      vertex 27.0375 -11.2169 0
    endloop
  endfacet
  facet normal 0.415415 0.909632 0
    outer loop
      vertex 27.0375 -11.2169 5.5
      vertex 27.0375 -11.2169 0
      vertex 25.3717 -10.4562 5.5
    endloop
  endfacet
  facet normal 0.415415 0.909632 0
    outer loop
      vertex 25.3717 -10.4562 5.5
      vertex 27.0375 -11.2169 0
      vertex 25.3717 -10.4562 0
    endloop
  endfacet
  facet normal 0.841253 0.540641 0
    outer loop
      vertex 24.3816 -8.91563 5.5
      vertex 25.3717 -10.4562 5.5
      vertex 25.3717 -10.4562 0
    endloop
  endfacet
  facet normal 0.841253 0.540641 0
    outer loop
      vertex 24.3816 -8.91563 0
      vertex 24.3816 -8.91563 5.5
      vertex 25.3717 -10.4562 0
    endloop
  endfacet
  facet normal 0.866025 0.5 0
    outer loop
      vertex -33.35 -8 13
      vertex -30.425 -13.0662 13
      vertex -30.425 -13.0662 5.5
    endloop
  endfacet
  facet normal 0.866025 0.5 0
    outer loop
      vertex -33.35 -8 5.5
      vertex -33.35 -8 13
      vertex -30.425 -13.0662 5.5
    endloop
  endfacet
  facet normal 0 1 0
    outer loop
      vertex -24.575 -13.0662 13
      vertex -24.575 -13.0662 5.5
      vertex -30.425 -13.0662 13
    endloop
  endfacet
  facet normal 0 1 0
    outer loop
      vertex -30.425 -13.0662 13
      vertex -24.575 -13.0662 5.5
      vertex -30.425 -13.0662 5.5
    endloop
  endfacet
  facet normal -0.866025 0.5 0
    outer loop
      vertex -21.65 -8 13
      vertex -21.65 -8 5.5
      vertex -24.575 -13.0662 13
    endloop
  endfacet
  facet normal -0.866025 0.5 0
    outer loop
      vertex -24.575 -13.0662 13
      vertex -21.65 -8 5.5
      vertex -24.575 -13.0662 5.5
    endloop
  endfacet
  facet normal -0.866025 -0.5 0
    outer loop
      vertex -21.65 -8 13
      vertex -24.575 -2.93375 13
      vertex -21.65 -8 5.5
    endloop
  endfacet
  facet normal -0.866025 -0.5 0
    outer loop
      vertex -21.65 -8 5.5
      vertex -24.575 -2.93375 13
      vertex -24.575 -2.93375 5.5
    endloop
  endfacet
  facet normal 0 -1 0
    outer loop
      vertex -24.575 -2.93375 5.5
      vertex -24.575 -2.93375 13
      vertex -30.425 -2.93375 13
    endloop
  endfacet
  facet normal 0 -1 0
    outer loop
      vertex -30.425 -2.93375 5.5
      vertex -24.575 -2.93375 5.5
      vertex -30.425 -2.93375 13
    endloop
  endfacet
  facet normal 0.866025 -0.5 0
    outer loop
      vertex -30.425 -2.93375 5.5
      vertex -30.425 -2.93375 13
      vertex -33.35 -8 13
    endloop
  endfacet
  facet normal 0.866025 -0.5 0
    outer loop
      vertex -33.35 -8 5.5
      vertex -30.425 -2.93375 5.5
      vertex -33.35 -8 13
    endloop
  endfacet
  facet normal 1 0 0
    outer loop
      vertex -2.58415 -11.5594 7.3
      vertex -2.58415 -11.5594 13
      vertex -2.58415 -13.4406 13
    endloop
  endfacet
  facet normal 1 0 0
    outer loop
      vertex -2.58415 -13.4406 7.3
      vertex -2.58415 -11.5594 7.3
      vertex -2.58415 -13.4406 13
    endloop
  endfacet
  facet normal 0.766044 0.642788 0
    outer loop
      vertex -2.58415 -13.4406 13
      vertex -1.375 -14.8816 13
      vertex -1.375 -14.8816 7.3
    endloop
  endfacet
  facet normal 0.766044 0.642788 0
    outer loop
      vertex -2.58415 -13.4406 7.3
      vertex -2.58415 -13.4406 13
      vertex -1.375 -14.8816 7.3
    endloop
  endfacet
  facet normal 0.173648 0.984808 0
    outer loop
      vertex 0.477532 -15.2082 13
      vertex 0.477532 -15.2082 7.3
      vertex -1.375 -14.8816 13
    endloop
  endfacet
  facet normal 0.173648 0.984808 0
    outer loop
      vertex -1.375 -14.8816 13
      vertex 0.477532 -15.2082 7.3
      vertex -1.375 -14.8816 7.3
    endloop
  endfacet
  facet normal -0.5 0.866026 0
    outer loop
      vertex 2.10662 -14.2677 13
      vertex 2.10662 -14.2677 7.3
      vertex 0.477532 -15.2082 13
    endloop
  endfacet
  facet normal -0.5 0.866026 0
    outer loop
      vertex 0.477532 -15.2082 13
      vertex 2.10662 -14.2677 7.3
      vertex 0.477532 -15.2082 7.3
    endloop
  endfacet
  facet normal -0.939693 0.34202 0
    outer loop
      vertex 2.75 -12.5 13
      vertex 2.75 -12.5 7.3
      vertex 2.10662 -14.2677 13
    endloop
  endfacet
  facet normal -0.939693 0.34202 0
    outer loop
      vertex 2.10662 -14.2677 13
      vertex 2.75 -12.5 7.3
      vertex 2.10662 -14.2677 7.3
    endloop
  endfacet
  facet normal -0.939693 -0.34202 0
    outer loop
      vertex 2.75 -12.5 13
      vertex 2.10662 -10.7323 13
      vertex 2.75 -12.5 7.3
    endloop
  endfacet
  facet normal -0.939693 -0.34202 0
    outer loop
      vertex 2.75 -12.5 7.3
      vertex 2.10662 -10.7323 13
      vertex 2.10662 -10.7323 7.3
    endloop
  endfacet
  facet normal -0.5 -0.866026 0
    outer loop
      vertex 2.10662 -10.7323 7.3
      vertex 2.10662 -10.7323 13
      vertex 0.477532 -9.79178 13
    endloop
  endfacet
  facet normal -0.5 -0.866026 0
    outer loop
      vertex 0.477532 -9.79178 7.3
      vertex 2.10662 -10.7323 7.3
      vertex 0.477532 -9.79178 13
    endloop
  endfacet
  facet normal 0.173648 -0.984808 0
    outer loop
      vertex 0.477532 -9.79178 7.3
      vertex 0.477532 -9.79178 13
      vertex -1.375 -10.1184 13
    endloop
  endfacet
  facet normal 0.173648 -0.984808 0
    outer loop
      vertex -1.375 -10.1184 7.3
      vertex 0.477532 -9.79178 7.3
      vertex -1.375 -10.1184 13
    endloop
  endfacet
  facet normal 0.766044 -0.642788 0
    outer loop
      vertex -1.375 -10.1184 7.3
      vertex -1.375 -10.1184 13
      vertex -2.58415 -11.5594 13
    endloop
  endfacet
  facet normal 0.766044 -0.642788 0
    outer loop
      vertex -2.58415 -11.5594 7.3
      vertex -1.375 -10.1184 7.3
      vertex -2.58415 -11.5594 13
    endloop
  endfacet
  facet normal 0.866025 0.5 0
    outer loop
      vertex 21.65 -8 13
      vertex 24.575 -13.0662 13
      vertex 24.575 -13.0662 5.5
    endloop
  endfacet
  facet normal 0.866025 0.5 0
    outer loop
      vertex 21.65 -8 5.5
      vertex 21.65 -8 13
      vertex 24.575 -13.0662 5.5
    endloop
  endfacet
  facet normal 0 1 0
    outer loop
      vertex 30.425 -13.0662 13
      vertex 30.425 -13.0662 5.5
      vertex 24.575 -13.0662 13
    endloop
  endfacet
  facet normal 0 1 0
    outer loop
      vertex 24.575 -13.0662 13
      vertex 30.425 -13.0662 5.5
      vertex 24.575 -13.0662 5.5
    endloop
  endfacet
  facet normal -0.866025 0.5 0
    outer loop
      vertex 33.35 -8 13
      vertex 33.35 -8 5.5
      vertex 30.425 -13.0662 13
    endloop
  endfacet
  facet normal -0.866025 0.5 0
    outer loop
      vertex 30.425 -13.0662 13
      vertex 33.35 -8 5.5
      vertex 30.425 -13.0662 5.5
    endloop
  endfacet
  facet normal -0.866025 -0.5 0
    outer loop
      vertex 33.35 -8 13
      vertex 30.425 -2.93375 13
      vertex 33.35 -8 5.5
    endloop
  endfacet
  facet normal -0.866025 -0.5 0
    outer loop
      vertex 33.35 -8 5.5
      vertex 30.425 -2.93375 13
      vertex 30.425 -2.93375 5.5
    endloop
  endfacet
  facet normal 0 -1 0
    outer loop
      vertex 30.425 -2.93375 5.5
      vertex 30.425 -2.93375 13
      vertex 24.575 -2.93375 13
    endloop
  endfacet
  facet normal 0 -1 0
    outer loop
      vertex 24.575 -2.93375 5.5
      vertex 30.425 -2.93375 5.5
      vertex 24.575 -2.93375 13
    endloop
  endfacet
  facet normal 0.866025 -0.5 0
    outer loop
      vertex 24.575 -2.93375 5.5
      vertex 24.575 -2.93375 13
      vertex 21.65 -8 13
    endloop
  endfacet
  facet normal 0.866025 -0.5 0
    outer loop
      vertex 21.65 -8 5.5
      vertex 24.575 -2.93375 5.5
      vertex 21.65 -8 13
    endloop
  endfacet
  facet normal 0 0 1
    outer loop
      vertex -26.1499 -10.9563 5.5
      vertex -24.575 -13.0662 5.5
      vertex -21.65 -8 5.5
    endloop
  endfacet
  facet normal 0 0 1
    outer loop
      vertex -24.7659 -9.75708 5.5
      vertex -26.1499 -10.9563 5.5
      vertex -21.65 -8 5.5
    endloop
  endfacet
  facet normal 0 0 1
    outer loop
      vertex -26.1499 -10.9563 5.5
      vertex -27.9625 -11.2169 5.5
      vertex -30.425 -13.0662 5.5
    endloop
  endfacet
  facet normal 0 0 1
    outer loop
      vertex -26.1499 -5.0437 5.5
      vertex -24.7659 -6.24292 5.5
      vertex -24.575 -2.93375 5.5
    endloop
  endfacet
  facet normal 0 0 1
    outer loop
      vertex -33.35 -8 5.5
      vertex -30.6184 -7.08437 5.5
      vertex -30.425 -2.93375 5.5
    endloop
  endfacet
  facet normal 0 0 1
    outer loop
      vertex -30.425 -2.93375 5.5
      vertex -29.6283 -5.54381 5.5
      vertex -24.575 -2.93375 5.5
    endloop
  endfacet
  facet normal 0 0 1
    outer loop
      vertex -29.6283 -5.54381 5.5
      vertex -27.9625 -4.78308 5.5
      vertex -24.575 -2.93375 5.5
    endloop
  endfacet
  facet normal 0 0 1
    outer loop
      vertex -27.9625 -4.78308 5.5
      vertex -26.1499 -5.0437 5.5
      vertex -24.575 -2.93375 5.5
    endloop
  endfacet
  facet normal 0 0 1
    outer loop
      vertex -24.575 -2.93375 5.5
      vertex -24.7659 -6.24292 5.5
      vertex -21.65 -8 5.5
    endloop
  endfacet
  facet normal 0 0 1
    outer loop
      vertex -24.7659 -6.24292 5.5
      vertex -24.25 -8 5.5
      vertex -21.65 -8 5.5
    endloop
  endfacet
  facet normal 0 0 1
    outer loop
      vertex -24.25 -8 5.5
      vertex -24.7659 -9.75708 5.5
      vertex -21.65 -8 5.5
    endloop
  endfacet
  facet normal 0 0 1
    outer loop
      vertex -30.425 -13.0662 5.5
      vertex -24.575 -13.0662 5.5
      vertex -26.1499 -10.9563 5.5
    endloop
  endfacet
  facet normal 0 0 1
    outer loop
      vertex -29.6283 -10.4562 5.5
      vertex -30.6184 -8.91563 5.5
      vertex -30.425 -13.0662 5.5
    endloop
  endfacet
  facet normal 0 0 1
    outer loop
      vertex -33.35 -8 5.5
      vertex -30.6184 -8.91563 5.5
      vertex -30.6184 -7.08437 5.5
    endloop
  endfacet
  facet normal 0 0 1
    outer loop
      vertex -33.35 -8 5.5
      vertex -30.425 -13.0662 5.5
      vertex -30.6184 -8.91563 5.5
    endloop
  endfacet
  facet normal 0 0 1
    outer loop
      vertex -30.6184 -7.08437 5.5
      vertex -29.6283 -5.54381 5.5
      vertex -30.425 -2.93375 5.5
    endloop
  endfacet
  facet normal 0 0 1
    outer loop
      vertex -27.9625 -11.2169 5.5
      vertex -29.6283 -10.4562 5.5
      vertex -30.425 -13.0662 5.5
    endloop
  endfacet
  facet normal 0 0 1
    outer loop
      vertex 28.8501 -10.9563 5.5
      vertex 30.425 -13.0662 5.5
      vertex 33.35 -8 5.5
    endloop
  endfacet
  facet normal 0 0 1
    outer loop
      vertex 30.2341 -9.75708 5.5
      vertex 28.8501 -10.9563 5.5
      vertex 33.35 -8 5.5
    endloop
  endfacet
  facet normal 0 0 1
    outer loop
      vertex 28.8501 -10.9563 5.5
      vertex 27.0375 -11.2169 5.5
      vertex 24.575 -13.0662 5.5
    endloop
  endfacet
  facet normal 0 0 1
    outer loop
      vertex 28.8501 -5.0437 5.5
      vertex 30.2341 -6.24292 5.5
      vertex 30.425 -2.93375 5.5
    endloop
  endfacet
  facet normal 0 0 1
    outer loop
      vertex 21.65 -8 5.5
      vertex 24.3816 -7.08437 5.5
      vertex 24.575 -2.93375 5.5
    endloop
  endfacet
  facet normal 0 0 1
    outer loop
      vertex 24.575 -2.93375 5.5
      vertex 25.3717 -5.54381 5.5
      vertex 30.425 -2.93375 5.5
    endloop
  endfacet
  facet normal 0 0 1
    outer loop
      vertex 25.3717 -5.54381 5.5
      vertex 27.0375 -4.78308 5.5
      vertex 30.425 -2.93375 5.5
    endloop
  endfacet
  facet normal 0 0 1
    outer loop
      vertex 27.0375 -4.78308 5.5
      vertex 28.8501 -5.0437 5.5
      vertex 30.425 -2.93375 5.5
    endloop
  endfacet
  facet normal 0 0 1
    outer loop
      vertex 30.425 -2.93375 5.5
      vertex 30.2341 -6.24292 5.5
      vertex 33.35 -8 5.5
    endloop
  endfacet
  facet normal 0 0 1
    outer loop
      vertex 30.2341 -6.24292 5.5
      vertex 30.75 -8 5.5
      vertex 33.35 -8 5.5
    endloop
  endfacet
  facet normal 0 0 1
    outer loop
      vertex 30.75 -8 5.5
      vertex 30.2341 -9.75708 5.5
      vertex 33.35 -8 5.5
    endloop
  endfacet
  facet normal 0 0 1
    outer loop
      vertex 24.575 -13.0662 5.5
      vertex 30.425 -13.0662 5.5
      vertex 28.8501 -10.9563 5.5
    endloop
  endfacet
  facet normal 0 0 1
    outer loop
      vertex 25.3717 -10.4562 5.5
      vertex 24.3816 -8.91563 5.5
      vertex 24.575 -13.0662 5.5
    endloop
  endfacet
  facet normal 0 0 1
    outer loop
      vertex 21.65 -8 5.5
      vertex 24.3816 -8.91563 5.5
      vertex 24.3816 -7.08437 5.5
    endloop
  endfacet
  facet normal 0 0 1
    outer loop
      vertex 21.65 -8 5.5
      vertex 24.575 -13.0662 5.5
      vertex 24.3816 -8.91563 5.5
    endloop
  endfacet
  facet normal 0 0 1
    outer loop
      vertex 24.3816 -7.08437 5.5
      vertex 25.3717 -5.54381 5.5
      vertex 24.575 -2.93375 5.5
    endloop
  endfacet
  facet normal 0 0 1
    outer loop
      vertex 27.0375 -11.2169 5.5
      vertex 25.3717 -10.4562 5.5
      vertex 24.575 -13.0662 5.5
    endloop
  endfacet
  facet normal 0 0 1
    outer loop
      vertex -1.375 -14.8816 7.3
      vertex 0.477532 -15.2082 7.3
      vertex 2.10662 -14.2677 7.3
    endloop
  endfacet
  facet normal 0 0 1
    outer loop
      vertex 2.10662 -10.7323 7.3
      vertex -1.375 -14.8816 7.3
      vertex 2.75 -12.5 7.3
    endloop
  endfacet
  facet normal 0 0 1
    outer loop
      vertex 2.75 -12.5 7.3
      vertex -1.375 -14.8816 7.3
      vertex 2.10662 -14.2677 7.3
    endloop
  endfacet
  facet normal 0 0 1
    outer loop
      vertex 0.477532 -9.79178 7.3
      vertex -1.375 -14.8816 7.3
      vertex 2.10662 -10.7323 7.3
    endloop
  endfacet
  facet normal 0 0 1
    outer loop
      vertex -1.375 -10.1184 7.3
      vertex -1.375 -14.8816 7.3
      vertex 0.477532 -9.79178 7.3
    endloop
  endfacet
  facet normal 0 0 1
    outer loop
      vertex -2.58415 -11.5594 7.3
      vertex -1.375 -14.8816 7.3
      vertex -1.375 -10.1184 7.3
    endloop
  endfacet
  facet normal 0 0 1
    outer loop
      vertex -2.58415 -13.4406 7.3
      vertex -1.375 -14.8816 7.3
      vertex -2.58415 -11.5594 7.3
    endloop
  endfacet
endsolid OpenSCAD_Model
