solid OpenSCAD_Model
  facet normal -1 0 0
    outer loop
      vertex -52 0 0
      vertex -52 0 20
      vertex -52 20 0
    endloop
  endfacet
  facet normal -1 0 0
    outer loop
      vertex -52 20 0
      vertex -52 0 20
      vertex -52 20 20
    endloop
  endfacet
  facet normal 0 -1 0
    outer loop
      vertex -41.6 0 7.5
      vertex -52 0 0
      vertex 52 0 0
    endloop
  endfacet
  facet normal 0 -1 0
    outer loop
      vertex 39.8322 0 8.23223
      vertex -52 0 20
      vertex 52 0 0
    endloop
  endfacet
  facet normal 0 -1 0
    outer loop
      vertex 41.6 0 12.5
      vertex 43.3678 0 11.7678
      vertex 52 0 20
    endloop
  endfacet
  facet normal 0 -1 0
    outer loop
      vertex -52 0 20
      vertex -52 0 0
      vertex -43.3678 0 8.23223
    endloop
  endfacet
  facet normal 0 -1 0
    outer loop
      vertex -39.8322 0 8.23223
      vertex -41.6 0 7.5
      vertex 52 0 0
    endloop
  endfacet
  facet normal 0 -1 0
    outer loop
      vertex -52 0 20
      vertex -43.3678 0 8.23223
      vertex -44.1 0 10
    endloop
  endfacet
  facet normal 0 -1 0
    outer loop
      vertex -39.1 0 10
      vertex -39.8322 0 8.23223
      vertex 52 0 0
    endloop
  endfacet
  facet normal 0 -1 0
    outer loop
      vertex -52 0 20
      vertex -44.1 0 10
      vertex -43.3678 0 11.7678
    endloop
  endfacet
  facet normal 0 -1 0
    outer loop
      vertex -52 0 20
      vertex -41.6 0 12.5
      vertex 52 0 0
    endloop
  endfacet
  facet normal 0 -1 0
    outer loop
      vertex -52 0 20
      vertex -43.3678 0 11.7678
      vertex -41.6 0 12.5
    endloop
  endfacet
  facet normal 0 -1 0
    outer loop
      vertex -41.6 0 12.5
      vertex -39.8322 0 11.7678
      vertex 52 0 0
    endloop
  endfacet
  facet normal 0 -1 0
    outer loop
      vertex -43.3678 0 8.23223
      vertex -52 0 0
      vertex -41.6 0 7.5
    endloop
  endfacet
  facet normal 0 -1 0
    outer loop
      vertex 41.6 0 7.5
      vertex 39.8322 0 8.23223
      vertex 52 0 0
    endloop
  endfacet
  facet normal 0 -1 0
    outer loop
      vertex 39.1 0 10
      vertex -52 0 20
      vertex 39.8322 0 8.23223
    endloop
  endfacet
  facet normal 0 -1 0
    outer loop
      vertex 39.8322 0 11.7678
      vertex -52 0 20
      vertex 39.1 0 10
    endloop
  endfacet
  facet normal 0 -1 0
    outer loop
      vertex 52 0 20
      vertex -52 0 20
      vertex 39.8322 0 11.7678
    endloop
  endfacet
  facet normal 0 -1 0
    outer loop
      vertex 43.3678 0 11.7678
      vertex 44.1 0 10
      vertex 52 0 20
    endloop
  endfacet
  facet normal 0 -1 0
    outer loop
      vertex 52 0 20
      vertex 39.8322 0 11.7678
      vertex 41.6 0 12.5
    endloop
  endfacet
  facet normal 0 -1 0
    outer loop
      vertex 52 0 20
      vertex 44.1 0 10
      vertex 52 0 0
    endloop
  endfacet
  facet normal 0 -1 0
    outer loop
      vertex 44.1 0 10
      vertex 43.3678 0 8.23223
      vertex 52 0 0
    endloop
  endfacet
  facet normal 0 -1 0
    outer loop
      vertex 43.3678 0 8.23223
      vertex 41.6 0 7.5
      vertex 52 0 0
    endloop
  endfacet
  facet normal 0 -1 0
    outer loop
      vertex -39.8322 0 11.7678
      vertex -39.1 0 10
      vertex 52 0 0
    endloop
  endfacet
  facet normal 0 0 -1
    outer loop
      vertex 2.71774 10.1424 0
      vertex 52 0 0
      vertex -2.71774 10.1424 0
    endloop
  endfacet
  facet normal 0 0 -1
    outer loop
      vertex -13 13.4833 0
      vertex -52 20 0
      vertex -32.1039 20 0
    endloop
  endfacet
  facet normal 0 0 -1
    outer loop
      vertex -17.3974 16.6782 0
      vertex -32.1039 20 0
      vertex -32.8876 21.3575 0
    endloop
  endfacet
  facet normal 0 0 -1
    outer loop
      vertex -21.0344 20.7176 0
      vertex -32.8876 21.3575 0
      vertex -35.2133 28.5152 0
    endloop
  endfacet
  facet normal 0 0 -1
    outer loop
      vertex -25.4318 30.5943 0
      vertex -35.2133 28.5152 0
      vertex -36 36 0
    endloop
  endfacet
  facet normal 0 0 -1
    outer loop
      vertex -26 36 0
      vertex -36 36 0
      vertex -35.2133 43.4848 0
    endloop
  endfacet
  facet normal 0 0 -1
    outer loop
      vertex -25.4318 41.4057 0
      vertex -35.2133 43.4848 0
      vertex -32.8876 50.6425 0
    endloop
  endfacet
  facet normal 0 0 -1
    outer loop
      vertex -21.0344 51.2824 0
      vertex -32.8876 50.6425 0
      vertex -29.1246 57.1603 0
    endloop
  endfacet
  facet normal 0 0 -1
    outer loop
      vertex -17.3974 55.3218 0
      vertex -29.1246 57.1603 0
      vertex -24.0887 62.7532 0
    endloop
  endfacet
  facet normal 0 0 -1
    outer loop
      vertex -13 58.5167 0
      vertex -24.0887 62.7532 0
      vertex -18 67.1769 0
    endloop
  endfacet
  facet normal 0 0 -1
    outer loop
      vertex -8.03444 60.7275 0
      vertex -18 67.1769 0
      vertex -11.1246 70.238 0
    endloop
  endfacet
  facet normal 0 0 -1
    outer loop
      vertex -2.71774 61.8576 0
      vertex -11.1246 70.238 0
      vertex -10 70.4771 0
    endloop
  endfacet
  facet normal 0 0 -1
    outer loop
      vertex -2.36966 61.8576 0
      vertex -10 70.4771 0
      vertex -10 82 0
    endloop
  endfacet
  facet normal 0 0 -1
    outer loop
      vertex 3.125 82 0
      vertex 2.71774 61.8576 0
      vertex 2.36966 61.8576 0
    endloop
  endfacet
  facet normal 0 0 -1
    outer loop
      vertex -2.71774 61.8576 0
      vertex -10 70.4771 0
      vertex -2.36966 61.8576 0
    endloop
  endfacet
  facet normal 0 0 -1
    outer loop
      vertex 32.8876 21.3575 0
      vertex 23.7522 46.5752 0
      vertex 35.2133 28.5152 0
    endloop
  endfacet
  facet normal 0 0 -1
    outer loop
      vertex -8.03444 60.7275 0
      vertex -11.1246 70.238 0
      vertex -2.71774 61.8576 0
    endloop
  endfacet
  facet normal 0 0 -1
    outer loop
      vertex -13 58.5167 0
      vertex -18 67.1769 0
      vertex -8.03444 60.7275 0
    endloop
  endfacet
  facet normal 0 0 -1
    outer loop
      vertex -17.3974 55.3218 0
      vertex -24.0887 62.7532 0
      vertex -13 58.5167 0
    endloop
  endfacet
  facet normal 0 0 -1
    outer loop
      vertex -21.0344 51.2824 0
      vertex -29.1246 57.1603 0
      vertex -17.3974 55.3218 0
    endloop
  endfacet
  facet normal 0 0 -1
    outer loop
      vertex -23.7522 46.5752 0
      vertex -32.8876 50.6425 0
      vertex -21.0344 51.2824 0
    endloop
  endfacet
  facet normal 0 0 -1
    outer loop
      vertex -25.4318 41.4057 0
      vertex -32.8876 50.6425 0
      vertex -23.7522 46.5752 0
    endloop
  endfacet
  facet normal 0 0 -1
    outer loop
      vertex -26 36 0
      vertex -35.2133 43.4848 0
      vertex -25.4318 41.4057 0
    endloop
  endfacet
  facet normal 0 0 -1
    outer loop
      vertex -25.4318 30.5943 0
      vertex -36 36 0
      vertex -26 36 0
    endloop
  endfacet
  facet normal 0 0 -1
    outer loop
      vertex -23.7522 25.4248 0
      vertex -35.2133 28.5152 0
      vertex -25.4318 30.5943 0
    endloop
  endfacet
  facet normal 0 0 -1
    outer loop
      vertex -21.0344 20.7176 0
      vertex -35.2133 28.5152 0
      vertex -23.7522 25.4248 0
    endloop
  endfacet
  facet normal 0 0 -1
    outer loop
      vertex 13 13.4833 0
      vertex 52 0 0
      vertex 8.03444 11.2725 0
    endloop
  endfacet
  facet normal 0 0 -1
    outer loop
      vertex -17.3974 16.6782 0
      vertex -32.8876 21.3575 0
      vertex -21.0344 20.7176 0
    endloop
  endfacet
  facet normal 0 0 -1
    outer loop
      vertex 8.03444 11.2725 0
      vertex 52 0 0
      vertex 2.71774 10.1424 0
    endloop
  endfacet
  facet normal 0 0 -1
    outer loop
      vertex -13 13.4833 0
      vertex -32.1039 20 0
      vertex -17.3974 16.6782 0
    endloop
  endfacet
  facet normal 0 0 -1
    outer loop
      vertex -8.03444 11.2725 0
      vertex -52 20 0
      vertex -13 13.4833 0
    endloop
  endfacet
  facet normal 0 0 -1
    outer loop
      vertex -52 0 0
      vertex -52 20 0
      vertex -8.03444 11.2725 0
    endloop
  endfacet
  facet normal 0 0 -1
    outer loop
      vertex -52 0 0
      vertex -8.03444 11.2725 0
      vertex -2.71774 10.1424 0
    endloop
  endfacet
  facet normal 0 0 -1
    outer loop
      vertex -52 0 0
      vertex -2.71774 10.1424 0
      vertex 52 0 0
    endloop
  endfacet
  facet normal 0 0 -1
    outer loop
      vertex 17.3974 16.6782 0
      vertex 52 0 0
      vertex 13 13.4833 0
    endloop
  endfacet
  facet normal 0 0 -1
    outer loop
      vertex 21.0344 20.7176 0
      vertex 52 0 0
      vertex 17.3974 16.6782 0
    endloop
  endfacet
  facet normal 0 0 -1
    outer loop
      vertex 23.7522 25.4248 0
      vertex 52 0 0
      vertex 21.0344 20.7176 0
    endloop
  endfacet
  facet normal 0 0 -1
    outer loop
      vertex 25.4318 30.5943 0
      vertex 32.8876 21.3575 0
      vertex 32.1039 20 0
    endloop
  endfacet
  facet normal 0 0 -1
    outer loop
      vertex 32.1039 20 0
      vertex 52 0 0
      vertex 23.7522 25.4248 0
    endloop
  endfacet
  facet normal 0 0 -1
    outer loop
      vertex 25.4318 30.5943 0
      vertex 32.1039 20 0
      vertex 23.7522 25.4248 0
    endloop
  endfacet
  facet normal 0 0 -1
    outer loop
      vertex 3.125 82 0
      vertex 13 58.5167 0
      vertex 8.03444 60.7275 0
    endloop
  endfacet
  facet normal 0 0 -1
    outer loop
      vertex 35.2133 28.5152 0
      vertex 24.0887 62.7532 0
      vertex 36 36 0
    endloop
  endfacet
  facet normal 0 0 -1
    outer loop
      vertex 3.125 82 0
      vertex 21.0344 51.2824 0
      vertex 17.3974 55.3218 0
    endloop
  endfacet
  facet normal 0 0 -1
    outer loop
      vertex 3.125 82 0
      vertex 8.03444 60.7275 0
      vertex 2.71774 61.8576 0
    endloop
  endfacet
  facet normal 0 0 -1
    outer loop
      vertex 32.8876 21.3575 0
      vertex 26 36 0
      vertex 25.4318 41.4057 0
    endloop
  endfacet
  facet normal 0 0 -1
    outer loop
      vertex 10 70.4771 0
      vertex 3.125 82 0
      vertex 10 82 0
    endloop
  endfacet
  facet normal 0 0 -1
    outer loop
      vertex 35.2133 28.5152 0
      vertex 10 70.4771 0
      vertex 11.1246 70.238 0
    endloop
  endfacet
  facet normal 0 0 -1
    outer loop
      vertex 36 36 0
      vertex 29.1246 57.1603 0
      vertex 35.2133 43.4848 0
    endloop
  endfacet
  facet normal 0 0 -1
    outer loop
      vertex 32.8876 21.3575 0
      vertex 25.4318 41.4057 0
      vertex 23.7522 46.5752 0
    endloop
  endfacet
  facet normal 0 0 -1
    outer loop
      vertex 36 36 0
      vertex 24.0887 62.7532 0
      vertex 29.1246 57.1603 0
    endloop
  endfacet
  facet normal 0 0 -1
    outer loop
      vertex 35.2133 43.4848 0
      vertex 29.1246 57.1603 0
      vertex 32.8876 50.6425 0
    endloop
  endfacet
  facet normal 0 0 -1
    outer loop
      vertex 35.2133 28.5152 0
      vertex 18 67.1769 0
      vertex 24.0887 62.7532 0
    endloop
  endfacet
  facet normal 0 0 -1
    outer loop
      vertex 21.0344 51.2824 0
      vertex 3.125 82 0
      vertex 10 70.4771 0
    endloop
  endfacet
  facet normal 0 0 -1
    outer loop
      vertex 35.2133 28.5152 0
      vertex 11.1246 70.238 0
      vertex 18 67.1769 0
    endloop
  endfacet
  facet normal 0 0 -1
    outer loop
      vertex 32.8876 21.3575 0
      vertex 25.4318 30.5943 0
      vertex 26 36 0
    endloop
  endfacet
  facet normal 0 0 -1
    outer loop
      vertex 52 20 0
      vertex 52 0 0
      vertex 32.1039 20 0
    endloop
  endfacet
  facet normal 0 0 -1
    outer loop
      vertex -2.36966 61.8576 0
      vertex -10 82 0
      vertex -3.125 82 0
    endloop
  endfacet
  facet normal 0 0 -1
    outer loop
      vertex 3.125 82 0
      vertex 17.3974 55.3218 0
      vertex 13 58.5167 0
    endloop
  endfacet
  facet normal 0 0 -1
    outer loop
      vertex 23.7522 46.5752 0
      vertex 21.0344 51.2824 0
      vertex 10 70.4771 0
    endloop
  endfacet
  facet normal 0 0 -1
    outer loop
      vertex 23.7522 46.5752 0
      vertex 10 70.4771 0
      vertex 35.2133 28.5152 0
    endloop
  endfacet
  facet normal 0 1 0
    outer loop
      vertex -39.8322 20 8.23223
      vertex -32.1039 20 0
      vertex -41.6 20 7.5
    endloop
  endfacet
  facet normal 0 1 0
    outer loop
      vertex -39.8322 20 11.7678
      vertex -52 20 20
      vertex -32.1039 20 20
    endloop
  endfacet
  facet normal 0 1 0
    outer loop
      vertex -52 20 0
      vertex -52 20 20
      vertex -44.1 20 10
    endloop
  endfacet
  facet normal 0 1 0
    outer loop
      vertex -52 20 0
      vertex -44.1 20 10
      vertex -43.3678 20 8.23223
    endloop
  endfacet
  facet normal 0 1 0
    outer loop
      vertex -52 20 0
      vertex -43.3678 20 8.23223
      vertex -32.1039 20 0
    endloop
  endfacet
  facet normal 0 1 0
    outer loop
      vertex -43.3678 20 8.23223
      vertex -41.6 20 7.5
      vertex -32.1039 20 0
    endloop
  endfacet
  facet normal 0 1 0
    outer loop
      vertex -32.1039 20 0
      vertex -39.8322 20 8.23223
      vertex -32.1039 20 20
    endloop
  endfacet
  facet normal 0 1 0
    outer loop
      vertex -39.8322 20 8.23223
      vertex -39.1 20 10
      vertex -32.1039 20 20
    endloop
  endfacet
  facet normal 0 1 0
    outer loop
      vertex -41.6 20 12.5
      vertex -52 20 20
      vertex -39.8322 20 11.7678
    endloop
  endfacet
  facet normal 0 1 0
    outer loop
      vertex -39.1 20 10
      vertex -39.8322 20 11.7678
      vertex -32.1039 20 20
    endloop
  endfacet
  facet normal 0 1 0
    outer loop
      vertex -44.1 20 10
      vertex -52 20 20
      vertex -43.3678 20 11.7678
    endloop
  endfacet
  facet normal 0 1 0
    outer loop
      vertex -43.3678 20 11.7678
      vertex -52 20 20
      vertex -41.6 20 12.5
    endloop
  endfacet
  facet normal 0 0 1
    outer loop
      vertex -2.71774 10.1424 20
      vertex -52 0 20
      vertex 52 0 20
    endloop
  endfacet
  facet normal 0 0 1
    outer loop
      vertex -21.0344 20.7176 20
      vertex -23.7522 25.4248 20
      vertex -32.8876 21.3575 20
    endloop
  endfacet
  facet normal 0 0 1
    outer loop
      vertex -13 13.4833 20
      vertex -17.3974 16.6782 20
      vertex -52 20 20
    endloop
  endfacet
  facet normal 0 0 1
    outer loop
      vertex 52 20 20
      vertex 32.1039 20 20
      vertex 52 0 20
    endloop
  endfacet
  facet normal 0 0 1
    outer loop
      vertex -8.03444 60.7275 20
      vertex -10 70.4771 20
      vertex -13 58.5167 20
    endloop
  endfacet
  facet normal 0 0 1
    outer loop
      vertex 13 58.5167 20
      vertex 17.3974 55.3218 20
      vertex 24.0887 62.7532 20
    endloop
  endfacet
  facet normal 0 0 1
    outer loop
      vertex -13 58.5167 20
      vertex -10 70.4771 20
      vertex -17.3974 55.3218 20
    endloop
  endfacet
  facet normal 0 0 1
    outer loop
      vertex 18 67.1769 20
      vertex 11.1246 70.238 20
      vertex 2.36966 61.8576 20
    endloop
  endfacet
  facet normal 0 0 1
    outer loop
      vertex -23.7522 46.5752 20
      vertex -21.0344 51.2824 20
      vertex -36 36 20
    endloop
  endfacet
  facet normal 0 0 1
    outer loop
      vertex 18 67.1769 20
      vertex 2.36966 61.8576 20
      vertex 2.71774 61.8576 20
    endloop
  endfacet
  facet normal 0 0 1
    outer loop
      vertex 17.3974 55.3218 20
      vertex 21.0344 51.2824 20
      vertex 29.1246 57.1603 20
    endloop
  endfacet
  facet normal 0 0 1
    outer loop
      vertex 18 67.1769 20
      vertex 2.71774 61.8576 20
      vertex 8.03444 60.7275 20
    endloop
  endfacet
  facet normal 0 0 1
    outer loop
      vertex -35.2133 28.5152 20
      vertex -23.7522 25.4248 20
      vertex -25.4318 30.5943 20
    endloop
  endfacet
  facet normal 0 0 1
    outer loop
      vertex 24.0887 62.7532 20
      vertex 18 67.1769 20
      vertex 13 58.5167 20
    endloop
  endfacet
  facet normal 0 0 1
    outer loop
      vertex 29.1246 57.1603 20
      vertex 24.0887 62.7532 20
      vertex 17.3974 55.3218 20
    endloop
  endfacet
  facet normal 0 0 1
    outer loop
      vertex -2.71774 61.8576 20
      vertex -10 70.4771 20
      vertex -8.03444 60.7275 20
    endloop
  endfacet
  facet normal 0 0 1
    outer loop
      vertex 32.8876 50.6425 20
      vertex 29.1246 57.1603 20
      vertex 21.0344 51.2824 20
    endloop
  endfacet
  facet normal 0 0 1
    outer loop
      vertex 35.2133 43.4848 20
      vertex 32.8876 50.6425 20
      vertex 23.7522 46.5752 20
    endloop
  endfacet
  facet normal 0 0 1
    outer loop
      vertex 35.2133 43.4848 20
      vertex 23.7522 46.5752 20
      vertex 25.4318 41.4057 20
    endloop
  endfacet
  facet normal 0 0 1
    outer loop
      vertex 36 36 20
      vertex 35.2133 43.4848 20
      vertex 26 36 20
    endloop
  endfacet
  facet normal 0 0 1
    outer loop
      vertex 35.2133 28.5152 20
      vertex 36 36 20
      vertex 25.4318 30.5943 20
    endloop
  endfacet
  facet normal 0 0 1
    outer loop
      vertex 32.8876 21.3575 20
      vertex 35.2133 28.5152 20
      vertex 23.7522 25.4248 20
    endloop
  endfacet
  facet normal 0 0 1
    outer loop
      vertex 32.8876 21.3575 20
      vertex 21.0344 20.7176 20
      vertex 32.1039 20 20
    endloop
  endfacet
  facet normal 0 0 1
    outer loop
      vertex 32.1039 20 20
      vertex 17.3974 16.6782 20
      vertex 52 0 20
    endloop
  endfacet
  facet normal 0 0 1
    outer loop
      vertex 17.3974 16.6782 20
      vertex 13 13.4833 20
      vertex 52 0 20
    endloop
  endfacet
  facet normal 0 0 1
    outer loop
      vertex 13 13.4833 20
      vertex 8.03444 11.2725 20
      vertex 52 0 20
    endloop
  endfacet
  facet normal 0 0 1
    outer loop
      vertex 8.03444 11.2725 20
      vertex 2.71774 10.1424 20
      vertex 52 0 20
    endloop
  endfacet
  facet normal 0 0 1
    outer loop
      vertex -52 20 20
      vertex -52 0 20
      vertex -2.71774 10.1424 20
    endloop
  endfacet
  facet normal 0 0 1
    outer loop
      vertex -8.03444 11.2725 20
      vertex -13 13.4833 20
      vertex -52 20 20
    endloop
  endfacet
  facet normal 0 0 1
    outer loop
      vertex -52 20 20
      vertex -2.71774 10.1424 20
      vertex -8.03444 11.2725 20
    endloop
  endfacet
  facet normal 0 0 1
    outer loop
      vertex -17.3974 16.6782 20
      vertex -32.1039 20 20
      vertex -52 20 20
    endloop
  endfacet
  facet normal 0 0 1
    outer loop
      vertex 21.0344 20.7176 20
      vertex 17.3974 16.6782 20
      vertex 32.1039 20 20
    endloop
  endfacet
  facet normal 0 0 1
    outer loop
      vertex 2.71774 10.1424 20
      vertex -2.71774 10.1424 20
      vertex 52 0 20
    endloop
  endfacet
  facet normal 0 0 1
    outer loop
      vertex 25.4318 30.5943 20
      vertex 23.7522 25.4248 20
      vertex 35.2133 28.5152 20
    endloop
  endfacet
  facet normal 0 0 1
    outer loop
      vertex 23.7522 25.4248 20
      vertex 21.0344 20.7176 20
      vertex 32.8876 21.3575 20
    endloop
  endfacet
  facet normal 0 0 1
    outer loop
      vertex 25.4318 41.4057 20
      vertex 26 36 20
      vertex 35.2133 43.4848 20
    endloop
  endfacet
  facet normal 0 0 1
    outer loop
      vertex 26 36 20
      vertex 25.4318 30.5943 20
      vertex 36 36 20
    endloop
  endfacet
  facet normal 0 0 1
    outer loop
      vertex 8.03444 60.7275 20
      vertex 13 58.5167 20
      vertex 18 67.1769 20
    endloop
  endfacet
  facet normal 0 0 1
    outer loop
      vertex -17.3974 16.6782 20
      vertex -21.0344 20.7176 20
      vertex -32.1039 20 20
    endloop
  endfacet
  facet normal 0 0 1
    outer loop
      vertex -10 82 20
      vertex -10 70.4771 20
      vertex -3.125 82 20
    endloop
  endfacet
  facet normal 0 0 1
    outer loop
      vertex -36 36 20
      vertex -26 36 20
      vertex -25.4318 41.4057 20
    endloop
  endfacet
  facet normal 0 0 1
    outer loop
      vertex -2.36966 61.8576 20
      vertex -3.125 82 20
      vertex -10 70.4771 20
    endloop
  endfacet
  facet normal 0 0 1
    outer loop
      vertex -25.4318 30.5943 20
      vertex -26 36 20
      vertex -35.2133 28.5152 20
    endloop
  endfacet
  facet normal 0 0 1
    outer loop
      vertex -2.36966 61.8576 20
      vertex -10 70.4771 20
      vertex -2.71774 61.8576 20
    endloop
  endfacet
  facet normal 0 0 1
    outer loop
      vertex -32.8876 50.6425 20
      vertex -35.2133 43.4848 20
      vertex -24.0887 62.7532 20
    endloop
  endfacet
  facet normal 0 0 1
    outer loop
      vertex -36 36 20
      vertex -35.2133 28.5152 20
      vertex -26 36 20
    endloop
  endfacet
  facet normal 0 0 1
    outer loop
      vertex -18 67.1769 20
      vertex -24.0887 62.7532 20
      vertex -35.2133 43.4848 20
    endloop
  endfacet
  facet normal 0 0 1
    outer loop
      vertex -35.2133 43.4848 20
      vertex -17.3974 55.3218 20
      vertex -10 70.4771 20
    endloop
  endfacet
  facet normal 0 0 1
    outer loop
      vertex -35.2133 43.4848 20
      vertex -11.1246 70.238 20
      vertex -18 67.1769 20
    endloop
  endfacet
  facet normal 0 0 1
    outer loop
      vertex -24.0887 62.7532 20
      vertex -29.1246 57.1603 20
      vertex -32.8876 50.6425 20
    endloop
  endfacet
  facet normal 0 0 1
    outer loop
      vertex -35.2133 43.4848 20
      vertex -10 70.4771 20
      vertex -11.1246 70.238 20
    endloop
  endfacet
  facet normal 0 0 1
    outer loop
      vertex -36 36 20
      vertex -25.4318 41.4057 20
      vertex -23.7522 46.5752 20
    endloop
  endfacet
  facet normal 0 0 1
    outer loop
      vertex 21.0344 51.2824 20
      vertex 23.7522 46.5752 20
      vertex 32.8876 50.6425 20
    endloop
  endfacet
  facet normal 0 0 1
    outer loop
      vertex -32.8876 21.3575 20
      vertex -32.1039 20 20
      vertex -21.0344 20.7176 20
    endloop
  endfacet
  facet normal 0 0 1
    outer loop
      vertex -35.2133 28.5152 20
      vertex -32.8876 21.3575 20
      vertex -23.7522 25.4248 20
    endloop
  endfacet
  facet normal 0 0 1
    outer loop
      vertex -35.2133 43.4848 20
      vertex -21.0344 51.2824 20
      vertex -17.3974 55.3218 20
    endloop
  endfacet
  facet normal 0 0 1
    outer loop
      vertex -35.2133 43.4848 20
      vertex -36 36 20
      vertex -21.0344 51.2824 20
    endloop
  endfacet
  facet normal 0 0 1
    outer loop
      vertex 3.125 82 20
      vertex 10 70.4771 20
      vertex 10 82 20
    endloop
  endfacet
  facet normal 0 0 1
    outer loop
      vertex 10 70.4771 20
      vertex 2.36966 61.8576 20
      vertex 11.1246 70.238 20
    endloop
  endfacet
  facet normal 0 0 1
    outer loop
      vertex 3.125 82 20
      vertex 2.36966 61.8576 20
      vertex 10 70.4771 20
    endloop
  endfacet
  facet normal 1 0 0
    outer loop
      vertex 52 0 20
      vertex 52 0 0
      vertex 52 20 0
    endloop
  endfacet
  facet normal 1 0 0
    outer loop
      vertex 52 20 20
      vertex 52 0 20
      vertex 52 20 0
    endloop
  endfacet
  facet normal 0.382683 -2.05142e-16 0.92388
    outer loop
      vertex -41.6 0 7.5
      vertex -41.6 20 7.5
      vertex -43.3678 20 8.23223
    endloop
  endfacet
  facet normal 0.382683 -2.05142e-16 0.92388
    outer loop
      vertex -43.3678 0 8.23223
      vertex -41.6 0 7.5
      vertex -43.3678 20 8.23223
    endloop
  endfacet
  facet normal 0.92388 -8.49728e-17 0.382683
    outer loop
      vertex -43.3678 0 8.23223
      vertex -43.3678 20 8.23223
      vertex -44.1 20 10
    endloop
  endfacet
  facet normal 0.92388 -8.49728e-17 0.382683
    outer loop
      vertex -44.1 0 10
      vertex -43.3678 0 8.23223
      vertex -44.1 20 10
    endloop
  endfacet
  facet normal -0.382683 -2.05142e-16 0.92388
    outer loop
      vertex -39.8322 0 8.23223
      vertex -39.8322 20 8.23223
      vertex -41.6 20 7.5
    endloop
  endfacet
  facet normal -0.382683 -2.05142e-16 0.92388
    outer loop
      vertex -41.6 0 7.5
      vertex -39.8322 0 8.23223
      vertex -41.6 20 7.5
    endloop
  endfacet
  facet normal -0.92388 -8.49728e-17 0.382683
    outer loop
      vertex -39.1 20 10
      vertex -39.8322 20 8.23223
      vertex -39.1 0 10
    endloop
  endfacet
  facet normal -0.92388 -8.49728e-17 0.382683
    outer loop
      vertex -39.1 0 10
      vertex -39.8322 20 8.23223
      vertex -39.8322 0 8.23223
    endloop
  endfacet
  facet normal -0.92388 8.49728e-17 -0.382683
    outer loop
      vertex -39.1 20 10
      vertex -39.1 0 10
      vertex -39.8322 20 11.7678
    endloop
  endfacet
  facet normal -0.92388 8.49728e-17 -0.382683
    outer loop
      vertex -39.8322 20 11.7678
      vertex -39.1 0 10
      vertex -39.8322 0 11.7678
    endloop
  endfacet
  facet normal -0.382683 2.05142e-16 -0.92388
    outer loop
      vertex -39.8322 20 11.7678
      vertex -39.8322 0 11.7678
      vertex -41.6 20 12.5
    endloop
  endfacet
  facet normal -0.382683 2.05142e-16 -0.92388
    outer loop
      vertex -41.6 20 12.5
      vertex -39.8322 0 11.7678
      vertex -41.6 0 12.5
    endloop
  endfacet
  facet normal 0.382683 2.05142e-16 -0.92388
    outer loop
      vertex -41.6 20 12.5
      vertex -41.6 0 12.5
      vertex -43.3678 20 11.7678
    endloop
  endfacet
  facet normal 0.382683 2.05142e-16 -0.92388
    outer loop
      vertex -43.3678 20 11.7678
      vertex -41.6 0 12.5
      vertex -43.3678 0 11.7678
    endloop
  endfacet
  facet normal 0.92388 8.49728e-17 -0.382683
    outer loop
      vertex -44.1 20 10
      vertex -43.3678 20 11.7678
      vertex -43.3678 0 11.7678
    endloop
  endfacet
  facet normal 0.92388 8.49728e-17 -0.382683
    outer loop
      vertex -44.1 0 10
      vertex -44.1 20 10
      vertex -43.3678 0 11.7678
    endloop
  endfacet
  facet normal 0.382683 -2.05142e-16 0.92388
    outer loop
      vertex 41.6 0 7.5
      vertex 41.6 20 7.5
      vertex 39.8322 20 8.23223
    endloop
  endfacet
  facet normal 0.382683 -2.05142e-16 0.92388
    outer loop
      vertex 39.8322 0 8.23223
      vertex 41.6 0 7.5
      vertex 39.8322 20 8.23223
    endloop
  endfacet
  facet normal 0.92388 -8.49728e-17 0.382683
    outer loop
      vertex 39.8322 0 8.23223
      vertex 39.8322 20 8.23223
      vertex 39.1 20 10
    endloop
  endfacet
  facet normal 0.92388 -8.49728e-17 0.382683
    outer loop
      vertex 39.1 0 10
      vertex 39.8322 0 8.23223
      vertex 39.1 20 10
    endloop
  endfacet
  facet normal -0.382683 -2.05142e-16 0.92388
    outer loop
      vertex 43.3678 0 8.23223
      vertex 43.3678 20 8.23223
      vertex 41.6 20 7.5
    endloop
  endfacet
  facet normal -0.382683 -2.05142e-16 0.92388
    outer loop
      vertex 41.6 0 7.5
      vertex 43.3678 0 8.23223
      vertex 41.6 20 7.5
    endloop
  endfacet
  facet normal -0.92388 -8.49728e-17 0.382683
    outer loop
      vertex 44.1 20 10
      vertex 43.3678 20 8.23223
      vertex 44.1 0 10
    endloop
  endfacet
  facet normal -0.92388 -8.49728e-17 0.382683
    outer loop
      vertex 44.1 0 10
      vertex 43.3678 20 8.23223
      vertex 43.3678 0 8.23223
    endloop
  endfacet
  facet normal -0.92388 8.49728e-17 -0.382683
    outer loop
      vertex 44.1 20 10
      vertex 44.1 0 10
      vertex 43.3678 20 11.7678
    endloop
  endfacet
  facet normal -0.92388 8.49728e-17 -0.382683
    outer loop
      vertex 43.3678 20 11.7678
      vertex 44.1 0 10
      vertex 43.3678 0 11.7678
    endloop
  endfacet
  facet normal -0.382683 2.05142e-16 -0.92388
    outer loop
      vertex 43.3678 20 11.7678
      vertex 43.3678 0 11.7678
      vertex 41.6 20 12.5
    endloop
  endfacet
  facet normal -0.382683 2.05142e-16 -0.92388
    outer loop
      vertex 41.6 20 12.5
      vertex 43.3678 0 11.7678
      vertex 41.6 0 12.5
    endloop
  endfacet
  facet normal 0.382683 2.05142e-16 -0.92388
    outer loop
      vertex 41.6 20 12.5
      vertex 41.6 0 12.5
      vertex 39.8322 20 11.7678
    endloop
  endfacet
  facet normal 0.382683 2.05142e-16 -0.92388
    outer loop
      vertex 39.8322 20 11.7678
      vertex 41.6 0 12.5
      vertex 39.8322 0 11.7678
    endloop
  endfacet
  facet normal 0.92388 8.49728e-17 -0.382683
    outer loop
      vertex 39.1 20 10
      vertex 39.8322 20 11.7678
      vertex 39.8322 0 11.7678
    endloop
  endfacet
  facet normal 0.92388 8.49728e-17 -0.382683
    outer loop
      vertex 39.1 0 10
      vertex 39.1 20 10
      vertex 39.8322 0 11.7678
    endloop
  endfacet
  facet normal 0 1 0
    outer loop
      vertex 43.3678 20 11.7678
      vertex 32.1039 20 20
      vertex 52 20 20
    endloop
  endfacet
  facet normal 0 1 0
    outer loop
      vertex 32.1039 20 0
      vertex 32.1039 20 20
      vertex 39.1 20 10
    endloop
  endfacet
  facet normal 0 1 0
    outer loop
      vertex 32.1039 20 0
      vertex 39.1 20 10
      vertex 39.8322 20 8.23223
    endloop
  endfacet
  facet normal 0 1 0
    outer loop
      vertex 32.1039 20 0
      vertex 39.8322 20 8.23223
      vertex 52 20 0
    endloop
  endfacet
  facet normal 0 1 0
    outer loop
      vertex 39.8322 20 8.23223
      vertex 41.6 20 7.5
      vertex 52 20 0
    endloop
  endfacet
  facet normal 0 1 0
    outer loop
      vertex 44.1 20 10
      vertex 52 20 0
      vertex 43.3678 20 8.23223
    endloop
  endfacet
  facet normal 0 1 0
    outer loop
      vertex 39.8322 20 11.7678
      vertex 32.1039 20 20
      vertex 41.6 20 12.5
    endloop
  endfacet
  facet normal 0 1 0
    outer loop
      vertex 52 20 0
      vertex 44.1 20 10
      vertex 52 20 20
    endloop
  endfacet
  facet normal 0 1 0
    outer loop
      vertex 41.6 20 12.5
      vertex 32.1039 20 20
      vertex 43.3678 20 11.7678
    endloop
  endfacet
  facet normal 0 1 0
    outer loop
      vertex 44.1 20 10
      vertex 43.3678 20 11.7678
      vertex 52 20 20
    endloop
  endfacet
  facet normal 0 1 0
    outer loop
      vertex 39.1 20 10
      vertex 32.1039 20 20
      vertex 39.8322 20 11.7678
    endloop
  endfacet
  facet normal 0 1 0
    outer loop
      vertex 43.3678 20 8.23223
      vertex 52 20 0
      vertex 41.6 20 7.5
    endloop
  endfacet
  facet normal 0.866025 -0.5 0
    outer loop
      vertex 32.1039 20 20
      vertex 32.1039 20 0
      vertex 32.8876 21.3575 0
    endloop
  endfacet
  facet normal 0.866025 -0.5 0
    outer loop
      vertex 32.8876 21.3575 20
      vertex 32.1039 20 20
      vertex 32.8876 21.3575 0
    endloop
  endfacet
  facet normal 0.951056 -0.309017 0
    outer loop
      vertex 32.8876 21.3575 20
      vertex 32.8876 21.3575 0
      vertex 35.2133 28.5152 0
    endloop
  endfacet
  facet normal 0.951056 -0.309017 0
    outer loop
      vertex 35.2133 28.5152 20
      vertex 32.8876 21.3575 20
      vertex 35.2133 28.5152 0
    endloop
  endfacet
  facet normal 0.994522 -0.104528 0
    outer loop
      vertex 35.2133 28.5152 20
      vertex 35.2133 28.5152 0
      vertex 36 36 0
    endloop
  endfacet
  facet normal 0.994522 -0.104528 0
    outer loop
      vertex 36 36 20
      vertex 35.2133 28.5152 20
      vertex 36 36 0
    endloop
  endfacet
  facet normal 0.994522 0.104528 0
    outer loop
      vertex 36 36 0
      vertex 35.2133 43.4848 0
      vertex 35.2133 43.4848 20
    endloop
  endfacet
  facet normal 0.994522 0.104528 0
    outer loop
      vertex 36 36 20
      vertex 36 36 0
      vertex 35.2133 43.4848 20
    endloop
  endfacet
  facet normal 0.951056 0.309017 0
    outer loop
      vertex 35.2133 43.4848 0
      vertex 32.8876 50.6425 0
      vertex 32.8876 50.6425 20
    endloop
  endfacet
  facet normal 0.951056 0.309017 0
    outer loop
      vertex 35.2133 43.4848 20
      vertex 35.2133 43.4848 0
      vertex 32.8876 50.6425 20
    endloop
  endfacet
  facet normal 0.866025 0.5 0
    outer loop
      vertex 32.8876 50.6425 0
      vertex 29.1246 57.1603 0
      vertex 29.1246 57.1603 20
    endloop
  endfacet
  facet normal 0.866025 0.5 0
    outer loop
      vertex 32.8876 50.6425 20
      vertex 32.8876 50.6425 0
      vertex 29.1246 57.1603 20
    endloop
  endfacet
  facet normal 0.743145 0.669131 0
    outer loop
      vertex 29.1246 57.1603 0
      vertex 24.0887 62.7532 0
      vertex 24.0887 62.7532 20
    endloop
  endfacet
  facet normal 0.743145 0.669131 0
    outer loop
      vertex 29.1246 57.1603 20
      vertex 29.1246 57.1603 0
      vertex 24.0887 62.7532 20
    endloop
  endfacet
  facet normal 0.587785 0.809017 0
    outer loop
      vertex 18 67.1769 0
      vertex 18 67.1769 20
      vertex 24.0887 62.7532 0
    endloop
  endfacet
  facet normal 0.587785 0.809017 0
    outer loop
      vertex 24.0887 62.7532 0
      vertex 18 67.1769 20
      vertex 24.0887 62.7532 20
    endloop
  endfacet
  facet normal 0.406737 0.913545 0
    outer loop
      vertex 11.1246 70.238 0
      vertex 11.1246 70.238 20
      vertex 18 67.1769 0
    endloop
  endfacet
  facet normal 0.406737 0.913545 0
    outer loop
      vertex 18 67.1769 0
      vertex 11.1246 70.238 20
      vertex 18 67.1769 20
    endloop
  endfacet
  facet normal 0.207912 0.978148 0
    outer loop
      vertex 10 70.4771 0
      vertex 10 70.4771 20
      vertex 11.1246 70.238 0
    endloop
  endfacet
  facet normal 0.207912 0.978148 0
    outer loop
      vertex 11.1246 70.238 0
      vertex 10 70.4771 20
      vertex 11.1246 70.238 20
    endloop
  endfacet
  facet normal 1 0 0
    outer loop
      vertex 10 72.5183 7.4125
      vertex 10 70.4771 0
      vertex 10 82 0
    endloop
  endfacet
  facet normal 1 0 0
    outer loop
      vertex 10 77 4.825
      vertex 10 72.5183 7.4125
      vertex 10 82 0
    endloop
  endfacet
  facet normal 1 0 0
    outer loop
      vertex 10 70.4771 20
      vertex 10 70.4771 0
      vertex 10 72.5183 7.4125
    endloop
  endfacet
  facet normal 1 0 0
    outer loop
      vertex 10 70.4771 20
      vertex 10 72.5183 7.4125
      vertex 10 72.5183 12.5875
    endloop
  endfacet
  facet normal 1 0 0
    outer loop
      vertex 10 82 20
      vertex 10 70.4771 20
      vertex 10 77 15.175
    endloop
  endfacet
  facet normal 1 0 0
    outer loop
      vertex 10 82 20
      vertex 10 81.4817 12.5875
      vertex 10 82 0
    endloop
  endfacet
  facet normal 1 0 0
    outer loop
      vertex 10 82 20
      vertex 10 77 15.175
      vertex 10 81.4817 12.5875
    endloop
  endfacet
  facet normal 1 0 0
    outer loop
      vertex 10 81.4817 12.5875
      vertex 10 81.4817 7.4125
      vertex 10 82 0
    endloop
  endfacet
  facet normal 1 0 0
    outer loop
      vertex 10 72.5183 12.5875
      vertex 10 77 15.175
      vertex 10 70.4771 20
    endloop
  endfacet
  facet normal 1 0 0
    outer loop
      vertex 10 81.4817 7.4125
      vertex 10 77 4.825
      vertex 10 82 0
    endloop
  endfacet
  facet normal 0 1 0
    outer loop
      vertex 3.125 82 0
      vertex 3.125 82 20
      vertex 10 82 0
    endloop
  endfacet
  facet normal 0 1 0
    outer loop
      vertex 10 82 0
      vertex 3.125 82 20
      vertex 10 82 20
    endloop
  endfacet
  facet normal -0.999298 0.0374737 0
    outer loop
      vertex 2.87121 75.2322 8.23223
      vertex 3.125 82 0
      vertex 2.36966 61.8576 20
    endloop
  endfacet
  facet normal -0.999298 0.0374737 0
    outer loop
      vertex 2.36966 61.8576 20
      vertex 3.125 82 0
      vertex 2.36966 61.8576 0
    endloop
  endfacet
  facet normal -0.999298 0.0374737 0
    outer loop
      vertex 2.9375 77 7.5
      vertex 3.125 82 0
      vertex 2.87121 75.2322 8.23223
    endloop
  endfacet
  facet normal -0.999298 0.0374737 0
    outer loop
      vertex 2.84375 74.5 10
      vertex 2.87121 75.2322 8.23223
      vertex 2.36966 61.8576 20
    endloop
  endfacet
  facet normal -0.999298 0.0374737 0
    outer loop
      vertex 3.00379 78.7678 8.23223
      vertex 3.125 82 0
      vertex 2.9375 77 7.5
    endloop
  endfacet
  facet normal -0.999298 0.0374737 0
    outer loop
      vertex 3.03125 79.5 10
      vertex 3.125 82 0
      vertex 3.00379 78.7678 8.23223
    endloop
  endfacet
  facet normal -0.999298 0.0374737 0
    outer loop
      vertex 3.125 82 20
      vertex 3.125 82 0
      vertex 3.03125 79.5 10
    endloop
  endfacet
  facet normal -0.999298 0.0374737 0
    outer loop
      vertex 2.9375 77 12.5
      vertex 3.125 82 20
      vertex 3.00379 78.7678 11.7678
    endloop
  endfacet
  facet normal -0.999298 0.0374737 0
    outer loop
      vertex 3.125 82 20
      vertex 2.9375 77 12.5
      vertex 2.36966 61.8576 20
    endloop
  endfacet
  facet normal -0.999298 0.0374737 0
    outer loop
      vertex 2.9375 77 12.5
      vertex 2.87121 75.2322 11.7678
      vertex 2.36966 61.8576 20
    endloop
  endfacet
  facet normal -0.999298 0.0374737 0
    outer loop
      vertex 2.87121 75.2322 11.7678
      vertex 2.84375 74.5 10
      vertex 2.36966 61.8576 20
    endloop
  endfacet
  facet normal -0.999298 0.0374737 0
    outer loop
      vertex 3.00379 78.7678 11.7678
      vertex 3.125 82 20
      vertex 3.03125 79.5 10
    endloop
  endfacet
  facet normal 0 -1 0
    outer loop
      vertex 2.71774 61.8576 0
      vertex 2.71774 61.8576 20
      vertex 2.36966 61.8576 20
    endloop
  endfacet
  facet normal 0 -1 0
    outer loop
      vertex 2.36966 61.8576 0
      vertex 2.71774 61.8576 0
      vertex 2.36966 61.8576 20
    endloop
  endfacet
  facet normal -0.207912 -0.978148 0
    outer loop
      vertex 8.03444 60.7275 0
      vertex 8.03444 60.7275 20
      vertex 2.71774 61.8576 20
    endloop
  endfacet
  facet normal -0.207912 -0.978148 0
    outer loop
      vertex 2.71774 61.8576 0
      vertex 8.03444 60.7275 0
      vertex 2.71774 61.8576 20
    endloop
  endfacet
  facet normal -0.406737 -0.913545 0
    outer loop
      vertex 13 58.5167 0
      vertex 13 58.5167 20
      vertex 8.03444 60.7275 20
    endloop
  endfacet
  facet normal -0.406737 -0.913545 0
    outer loop
      vertex 8.03444 60.7275 0
      vertex 13 58.5167 0
      vertex 8.03444 60.7275 20
    endloop
  endfacet
  facet normal -0.587785 -0.809017 0
    outer loop
      vertex 17.3974 55.3218 0
      vertex 17.3974 55.3218 20
      vertex 13 58.5167 20
    endloop
  endfacet
  facet normal -0.587785 -0.809017 0
    outer loop
      vertex 13 58.5167 0
      vertex 17.3974 55.3218 0
      vertex 13 58.5167 20
    endloop
  endfacet
  facet normal -0.743145 -0.669131 0
    outer loop
      vertex 21.0344 51.2824 20
      vertex 17.3974 55.3218 20
      vertex 21.0344 51.2824 0
    endloop
  endfacet
  facet normal -0.743145 -0.669131 0
    outer loop
      vertex 21.0344 51.2824 0
      vertex 17.3974 55.3218 20
      vertex 17.3974 55.3218 0
    endloop
  endfacet
  facet normal -0.866025 -0.5 0
    outer loop
      vertex 23.7522 46.5752 20
      vertex 21.0344 51.2824 20
      vertex 23.7522 46.5752 0
    endloop
  endfacet
  facet normal -0.866025 -0.5 0
    outer loop
      vertex 23.7522 46.5752 0
      vertex 21.0344 51.2824 20
      vertex 21.0344 51.2824 0
    endloop
  endfacet
  facet normal -0.951057 -0.309017 0
    outer loop
      vertex 25.4318 41.4057 20
      vertex 23.7522 46.5752 20
      vertex 25.4318 41.4057 0
    endloop
  endfacet
  facet normal -0.951057 -0.309017 0
    outer loop
      vertex 25.4318 41.4057 0
      vertex 23.7522 46.5752 20
      vertex 23.7522 46.5752 0
    endloop
  endfacet
  facet normal -0.994522 -0.104528 0
    outer loop
      vertex 26 36 20
      vertex 25.4318 41.4057 20
      vertex 26 36 0
    endloop
  endfacet
  facet normal -0.994522 -0.104528 0
    outer loop
      vertex 26 36 0
      vertex 25.4318 41.4057 20
      vertex 25.4318 41.4057 0
    endloop
  endfacet
  facet normal -0.994522 0.104528 0
    outer loop
      vertex 26 36 20
      vertex 26 36 0
      vertex 25.4318 30.5943 20
    endloop
  endfacet
  facet normal -0.994522 0.104528 0
    outer loop
      vertex 25.4318 30.5943 20
      vertex 26 36 0
      vertex 25.4318 30.5943 0
    endloop
  endfacet
  facet normal -0.951057 0.309017 0
    outer loop
      vertex 25.4318 30.5943 20
      vertex 25.4318 30.5943 0
      vertex 23.7522 25.4248 20
    endloop
  endfacet
  facet normal -0.951057 0.309017 0
    outer loop
      vertex 23.7522 25.4248 20
      vertex 25.4318 30.5943 0
      vertex 23.7522 25.4248 0
    endloop
  endfacet
  facet normal -0.866025 0.5 0
    outer loop
      vertex 23.7522 25.4248 20
      vertex 23.7522 25.4248 0
      vertex 21.0344 20.7176 20
    endloop
  endfacet
  facet normal -0.866025 0.5 0
    outer loop
      vertex 21.0344 20.7176 20
      vertex 23.7522 25.4248 0
      vertex 21.0344 20.7176 0
    endloop
  endfacet
  facet normal -0.743145 0.669131 0
    outer loop
      vertex 21.0344 20.7176 20
      vertex 21.0344 20.7176 0
      vertex 17.3974 16.6782 20
    endloop
  endfacet
  facet normal -0.743145 0.669131 0
    outer loop
      vertex 17.3974 16.6782 20
      vertex 21.0344 20.7176 0
      vertex 17.3974 16.6782 0
    endloop
  endfacet
  facet normal -0.587785 0.809017 0
    outer loop
      vertex 17.3974 16.6782 20
      vertex 17.3974 16.6782 0
      vertex 13 13.4833 20
    endloop
  endfacet
  facet normal -0.587785 0.809017 0
    outer loop
      vertex 13 13.4833 20
      vertex 17.3974 16.6782 0
      vertex 13 13.4833 0
    endloop
  endfacet
  facet normal -0.406737 0.913545 0
    outer loop
      vertex 13 13.4833 20
      vertex 13 13.4833 0
      vertex 8.03444 11.2725 20
    endloop
  endfacet
  facet normal -0.406737 0.913545 0
    outer loop
      vertex 8.03444 11.2725 20
      vertex 13 13.4833 0
      vertex 8.03444 11.2725 0
    endloop
  endfacet
  facet normal -0.207912 0.978148 0
    outer loop
      vertex 8.03444 11.2725 20
      vertex 8.03444 11.2725 0
      vertex 2.71774 10.1424 20
    endloop
  endfacet
  facet normal -0.207912 0.978148 0
    outer loop
      vertex 2.71774 10.1424 20
      vertex 8.03444 11.2725 0
      vertex 2.71774 10.1424 0
    endloop
  endfacet
  facet normal 0 1 0
    outer loop
      vertex 2.71774 10.1424 20
      vertex 2.71774 10.1424 0
      vertex -2.71774 10.1424 20
    endloop
  endfacet
  facet normal 0 1 0
    outer loop
      vertex -2.71774 10.1424 20
      vertex 2.71774 10.1424 0
      vertex -2.71774 10.1424 0
    endloop
  endfacet
  facet normal 0.207912 0.978148 0
    outer loop
      vertex -2.71774 10.1424 20
      vertex -2.71774 10.1424 0
      vertex -8.03444 11.2725 20
    endloop
  endfacet
  facet normal 0.207912 0.978148 0
    outer loop
      vertex -8.03444 11.2725 20
      vertex -2.71774 10.1424 0
      vertex -8.03444 11.2725 0
    endloop
  endfacet
  facet normal 0.406737 0.913545 0
    outer loop
      vertex -8.03444 11.2725 20
      vertex -8.03444 11.2725 0
      vertex -13 13.4833 20
    endloop
  endfacet
  facet normal 0.406737 0.913545 0
    outer loop
      vertex -13 13.4833 20
      vertex -8.03444 11.2725 0
      vertex -13 13.4833 0
    endloop
  endfacet
  facet normal 0.587785 0.809017 0
    outer loop
      vertex -13 13.4833 20
      vertex -13 13.4833 0
      vertex -17.3974 16.6782 20
    endloop
  endfacet
  facet normal 0.587785 0.809017 0
    outer loop
      vertex -17.3974 16.6782 20
      vertex -13 13.4833 0
      vertex -17.3974 16.6782 0
    endloop
  endfacet
  facet normal 0.743145 0.669131 0
    outer loop
      vertex -21.0344 20.7176 20
      vertex -17.3974 16.6782 20
      vertex -17.3974 16.6782 0
    endloop
  endfacet
  facet normal 0.743145 0.669131 0
    outer loop
      vertex -21.0344 20.7176 0
      vertex -21.0344 20.7176 20
      vertex -17.3974 16.6782 0
    endloop
  endfacet
  facet normal 0.866025 0.5 0
    outer loop
      vertex -23.7522 25.4248 20
      vertex -21.0344 20.7176 20
      vertex -21.0344 20.7176 0
    endloop
  endfacet
  facet normal 0.866025 0.5 0
    outer loop
      vertex -23.7522 25.4248 0
      vertex -23.7522 25.4248 20
      vertex -21.0344 20.7176 0
    endloop
  endfacet
  facet normal 0.951057 0.309017 0
    outer loop
      vertex -25.4318 30.5943 20
      vertex -23.7522 25.4248 20
      vertex -23.7522 25.4248 0
    endloop
  endfacet
  facet normal 0.951057 0.309017 0
    outer loop
      vertex -25.4318 30.5943 0
      vertex -25.4318 30.5943 20
      vertex -23.7522 25.4248 0
    endloop
  endfacet
  facet normal 0.994522 0.104528 0
    outer loop
      vertex -26 36 20
      vertex -25.4318 30.5943 20
      vertex -25.4318 30.5943 0
    endloop
  endfacet
  facet normal 0.994522 0.104528 0
    outer loop
      vertex -26 36 0
      vertex -26 36 20
      vertex -25.4318 30.5943 0
    endloop
  endfacet
  facet normal 0.994522 -0.104528 0
    outer loop
      vertex -25.4318 41.4057 0
      vertex -25.4318 41.4057 20
      vertex -26 36 20
    endloop
  endfacet
  facet normal 0.994522 -0.104528 0
    outer loop
      vertex -26 36 0
      vertex -25.4318 41.4057 0
      vertex -26 36 20
    endloop
  endfacet
  facet normal 0.951057 -0.309017 0
    outer loop
      vertex -23.7522 46.5752 0
      vertex -23.7522 46.5752 20
      vertex -25.4318 41.4057 20
    endloop
  endfacet
  facet normal 0.951057 -0.309017 0
    outer loop
      vertex -25.4318 41.4057 0
      vertex -23.7522 46.5752 0
      vertex -25.4318 41.4057 20
    endloop
  endfacet
  facet normal 0.866025 -0.5 0
    outer loop
      vertex -21.0344 51.2824 0
      vertex -21.0344 51.2824 20
      vertex -23.7522 46.5752 20
    endloop
  endfacet
  facet normal 0.866025 -0.5 0
    outer loop
      vertex -23.7522 46.5752 0
      vertex -21.0344 51.2824 0
      vertex -23.7522 46.5752 20
    endloop
  endfacet
  facet normal 0.743145 -0.669131 0
    outer loop
      vertex -17.3974 55.3218 0
      vertex -17.3974 55.3218 20
      vertex -21.0344 51.2824 20
    endloop
  endfacet
  facet normal 0.743145 -0.669131 0
    outer loop
      vertex -21.0344 51.2824 0
      vertex -17.3974 55.3218 0
      vertex -21.0344 51.2824 20
    endloop
  endfacet
  facet normal 0.587785 -0.809017 0
    outer loop
      vertex -13 58.5167 0
      vertex -13 58.5167 20
      vertex -17.3974 55.3218 20
    endloop
  endfacet
  facet normal 0.587785 -0.809017 0
    outer loop
      vertex -17.3974 55.3218 0
      vertex -13 58.5167 0
      vertex -17.3974 55.3218 20
    endloop
  endfacet
  facet normal 0.406737 -0.913545 0
    outer loop
      vertex -8.03444 60.7275 0
      vertex -8.03444 60.7275 20
      vertex -13 58.5167 20
    endloop
  endfacet
  facet normal 0.406737 -0.913545 0
    outer loop
      vertex -13 58.5167 0
      vertex -8.03444 60.7275 0
      vertex -13 58.5167 20
    endloop
  endfacet
  facet normal 0.207912 -0.978148 0
    outer loop
      vertex -2.71774 61.8576 0
      vertex -2.71774 61.8576 20
      vertex -8.03444 60.7275 20
    endloop
  endfacet
  facet normal 0.207912 -0.978148 0
    outer loop
      vertex -8.03444 60.7275 0
      vertex -2.71774 61.8576 0
      vertex -8.03444 60.7275 20
    endloop
  endfacet
  facet normal 0 -1 0
    outer loop
      vertex -2.36966 61.8576 0
      vertex -2.36966 61.8576 20
      vertex -2.71774 61.8576 20
    endloop
  endfacet
  facet normal 0 -1 0
    outer loop
      vertex -2.71774 61.8576 0
      vertex -2.36966 61.8576 0
      vertex -2.71774 61.8576 20
    endloop
  endfacet
  facet normal 0.999298 0.0374737 0
    outer loop
      vertex -3.125 82 20
      vertex -2.36966 61.8576 20
      vertex -2.36966 61.8576 0
    endloop
  endfacet
  facet normal 0.999298 0.0374737 0
    outer loop
      vertex -2.87121 75.2322 11.7678
      vertex -3.125 82 20
      vertex -2.36966 61.8576 0
    endloop
  endfacet
  facet normal 0.999298 0.0374737 0
    outer loop
      vertex -3.125 82 0
      vertex -3.00379 78.7678 8.23223
      vertex -2.36966 61.8576 0
    endloop
  endfacet
  facet normal 0.999298 0.0374737 0
    outer loop
      vertex -3.00379 78.7678 8.23223
      vertex -2.9375 77 7.5
      vertex -2.36966 61.8576 0
    endloop
  endfacet
  facet normal 0.999298 0.0374737 0
    outer loop
      vertex -2.9375 77 7.5
      vertex -2.87121 75.2322 8.23223
      vertex -2.36966 61.8576 0
    endloop
  endfacet
  facet normal 0.999298 0.0374737 0
    outer loop
      vertex -3.00379 78.7678 11.7678
      vertex -3.03125 79.5 10
      vertex -3.125 82 20
    endloop
  endfacet
  facet normal 0.999298 0.0374737 0
    outer loop
      vertex -2.87121 75.2322 8.23223
      vertex -2.84375 74.5 10
      vertex -2.36966 61.8576 0
    endloop
  endfacet
  facet normal 0.999298 0.0374737 0
    outer loop
      vertex -2.84375 74.5 10
      vertex -2.87121 75.2322 11.7678
      vertex -2.36966 61.8576 0
    endloop
  endfacet
  facet normal 0.999298 0.0374737 0
    outer loop
      vertex -3.125 82 0
      vertex -3.03125 79.5 10
      vertex -3.00379 78.7678 8.23223
    endloop
  endfacet
  facet normal 0.999298 0.0374737 0
    outer loop
      vertex -3.125 82 0
      vertex -3.125 82 20
      vertex -3.03125 79.5 10
    endloop
  endfacet
  facet normal 0.999298 0.0374737 0
    outer loop
      vertex -2.87121 75.2322 11.7678
      vertex -2.9375 77 12.5
      vertex -3.125 82 20
    endloop
  endfacet
  facet normal 0.999298 0.0374737 0
    outer loop
      vertex -2.9375 77 12.5
      vertex -3.00379 78.7678 11.7678
      vertex -3.125 82 20
    endloop
  endfacet
  facet normal 0 1 0
    outer loop
      vertex -10 82 0
      vertex -10 82 20
      vertex -3.125 82 0
    endloop
  endfacet
  facet normal 0 1 0
    outer loop
      vertex -3.125 82 0
      vertex -10 82 20
      vertex -3.125 82 20
    endloop
  endfacet
  facet normal -1 0 0
    outer loop
      vertex -10 78.7678 11.7678
      vertex -10 70.4771 20
      vertex -10 82 20
    endloop
  endfacet
  facet normal -1 0 0
    outer loop
      vertex -10 70.4771 0
      vertex -10 70.4771 20
      vertex -10 74.5 10
    endloop
  endfacet
  facet normal -1 0 0
    outer loop
      vertex -10 70.4771 0
      vertex -10 74.5 10
      vertex -10 75.2322 8.23223
    endloop
  endfacet
  facet normal -1 0 0
    outer loop
      vertex -10 70.4771 0
      vertex -10 75.2322 8.23223
      vertex -10 82 0
    endloop
  endfacet
  facet normal -1 0 0
    outer loop
      vertex -10 77 7.5
      vertex -10 82 0
      vertex -10 75.2322 8.23223
    endloop
  endfacet
  facet normal -1 0 0
    outer loop
      vertex -10 78.7678 8.23223
      vertex -10 82 0
      vertex -10 77 7.5
    endloop
  endfacet
  facet normal -1 0 0
    outer loop
      vertex -10 82 0
      vertex -10 78.7678 8.23223
      vertex -10 79.5 10
    endloop
  endfacet
  facet normal -1 0 0
    outer loop
      vertex -10 82 0
      vertex -10 79.5 10
      vertex -10 82 20
    endloop
  endfacet
  facet normal -1 0 0
    outer loop
      vertex -10 77 12.5
      vertex -10 70.4771 20
      vertex -10 78.7678 11.7678
    endloop
  endfacet
  facet normal -1 0 0
    outer loop
      vertex -10 75.2322 11.7678
      vertex -10 70.4771 20
      vertex -10 77 12.5
    endloop
  endfacet
  facet normal -1 0 0
    outer loop
      vertex -10 78.7678 11.7678
      vertex -10 82 20
      vertex -10 79.5 10
    endloop
  endfacet
  facet normal -1 0 0
    outer loop
      vertex -10 74.5 10
      vertex -10 70.4771 20
      vertex -10 75.2322 11.7678
    endloop
  endfacet
  facet normal -0.207912 0.978148 0
    outer loop
      vertex -11.1246 70.238 0
      vertex -11.1246 70.238 20
      vertex -10 70.4771 0
    endloop
  endfacet
  facet normal -0.207912 0.978148 0
    outer loop
      vertex -10 70.4771 0
      vertex -11.1246 70.238 20
      vertex -10 70.4771 20
    endloop
  endfacet
  facet normal -0.406737 0.913545 0
    outer loop
      vertex -18 67.1769 0
      vertex -18 67.1769 20
      vertex -11.1246 70.238 0
    endloop
  endfacet
  facet normal -0.406737 0.913545 0
    outer loop
      vertex -11.1246 70.238 0
      vertex -18 67.1769 20
      vertex -11.1246 70.238 20
    endloop
  endfacet
  facet normal -0.587785 0.809017 0
    outer loop
      vertex -24.0887 62.7532 0
      vertex -24.0887 62.7532 20
      vertex -18 67.1769 0
    endloop
  endfacet
  facet normal -0.587785 0.809017 0
    outer loop
      vertex -18 67.1769 0
      vertex -24.0887 62.7532 20
      vertex -18 67.1769 20
    endloop
  endfacet
  facet normal -0.743145 0.669131 0
    outer loop
      vertex -29.1246 57.1603 0
      vertex -29.1246 57.1603 20
      vertex -24.0887 62.7532 0
    endloop
  endfacet
  facet normal -0.743145 0.669131 0
    outer loop
      vertex -24.0887 62.7532 0
      vertex -29.1246 57.1603 20
      vertex -24.0887 62.7532 20
    endloop
  endfacet
  facet normal -0.866025 0.5 0
    outer loop
      vertex -32.8876 50.6425 0
      vertex -32.8876 50.6425 20
      vertex -29.1246 57.1603 0
    endloop
  endfacet
  facet normal -0.866025 0.5 0
    outer loop
      vertex -29.1246 57.1603 0
      vertex -32.8876 50.6425 20
      vertex -29.1246 57.1603 20
    endloop
  endfacet
  facet normal -0.951056 0.309017 0
    outer loop
      vertex -35.2133 43.4848 0
      vertex -35.2133 43.4848 20
      vertex -32.8876 50.6425 0
    endloop
  endfacet
  facet normal -0.951056 0.309017 0
    outer loop
      vertex -32.8876 50.6425 0
      vertex -35.2133 43.4848 20
      vertex -32.8876 50.6425 20
    endloop
  endfacet
  facet normal -0.994522 0.104528 0
    outer loop
      vertex -36 36 0
      vertex -36 36 20
      vertex -35.2133 43.4848 0
    endloop
  endfacet
  facet normal -0.994522 0.104528 0
    outer loop
      vertex -35.2133 43.4848 0
      vertex -36 36 20
      vertex -35.2133 43.4848 20
    endloop
  endfacet
  facet normal -0.994522 -0.104528 0
    outer loop
      vertex -36 36 0
      vertex -35.2133 28.5152 0
      vertex -36 36 20
    endloop
  endfacet
  facet normal -0.994522 -0.104528 0
    outer loop
      vertex -36 36 20
      vertex -35.2133 28.5152 0
      vertex -35.2133 28.5152 20
    endloop
  endfacet
  facet normal -0.951056 -0.309017 0
    outer loop
      vertex -35.2133 28.5152 0
      vertex -32.8876 21.3575 0
      vertex -35.2133 28.5152 20
    endloop
  endfacet
  facet normal -0.951056 -0.309017 0
    outer loop
      vertex -35.2133 28.5152 20
      vertex -32.8876 21.3575 0
      vertex -32.8876 21.3575 20
    endloop
  endfacet
  facet normal -0.866025 -0.5 0
    outer loop
      vertex -32.8876 21.3575 0
      vertex -32.1039 20 0
      vertex -32.8876 21.3575 20
    endloop
  endfacet
  facet normal -0.866025 -0.5 0
    outer loop
      vertex -32.8876 21.3575 20
      vertex -32.1039 20 0
      vertex -32.1039 20 20
    endloop
  endfacet
  facet normal 0 1 0
    outer loop
      vertex 10 72.5183 7.4125
      vertex 5.5 72.5183 7.4125
      vertex 10 72.5183 12.5875
    endloop
  endfacet
  facet normal 0 1 0
    outer loop
      vertex 10 72.5183 12.5875
      vertex 5.5 72.5183 7.4125
      vertex 5.5 72.5183 12.5875
    endloop
  endfacet
  facet normal -1.92296e-16 0.5 0.866025
    outer loop
      vertex 10 72.5183 7.4125
      vertex 10 77 4.825
      vertex 5.5 77 4.825
    endloop
  endfacet
  facet normal -1.92296e-16 0.5 0.866025
    outer loop
      vertex 5.5 72.5183 7.4125
      vertex 10 72.5183 7.4125
      vertex 5.5 77 4.825
    endloop
  endfacet
  facet normal -1.92296e-16 -0.5 0.866025
    outer loop
      vertex 5.5 77 4.825
      vertex 10 77 4.825
      vertex 10 81.4817 7.4125
    endloop
  endfacet
  facet normal -1.92296e-16 -0.5 0.866025
    outer loop
      vertex 5.5 81.4817 7.4125
      vertex 5.5 77 4.825
      vertex 10 81.4817 7.4125
    endloop
  endfacet
  facet normal 0 -1 0
    outer loop
      vertex 5.5 81.4817 7.4125
      vertex 10 81.4817 7.4125
      vertex 10 81.4817 12.5875
    endloop
  endfacet
  facet normal 0 -1 0
    outer loop
      vertex 5.5 81.4817 12.5875
      vertex 5.5 81.4817 7.4125
      vertex 10 81.4817 12.5875
    endloop
  endfacet
  facet normal 1.92296e-16 -0.5 -0.866025
    outer loop
      vertex 10 81.4817 12.5875
      vertex 10 77 15.175
      vertex 5.5 81.4817 12.5875
    endloop
  endfacet
  facet normal 1.92296e-16 -0.5 -0.866025
    outer loop
      vertex 5.5 81.4817 12.5875
      vertex 10 77 15.175
      vertex 5.5 77 15.175
    endloop
  endfacet
  facet normal 1.92296e-16 0.5 -0.866025
    outer loop
      vertex 10 72.5183 12.5875
      vertex 5.5 72.5183 12.5875
      vertex 10 77 15.175
    endloop
  endfacet
  facet normal 1.92296e-16 0.5 -0.866025
    outer loop
      vertex 10 77 15.175
      vertex 5.5 72.5183 12.5875
      vertex 5.5 77 15.175
    endloop
  endfacet
  facet normal -8.49728e-17 0.92388 0.382683
    outer loop
      vertex 5.5 75.2322 8.23223
      vertex 2.87121 75.2322 8.23223
      vertex 5.5 74.5 10
    endloop
  endfacet
  facet normal -8.49728e-17 0.92388 0.382683
    outer loop
      vertex 5.5 74.5 10
      vertex 2.87121 75.2322 8.23223
      vertex 2.84375 74.5 10
    endloop
  endfacet
  facet normal -2.05142e-16 0.382683 0.92388
    outer loop
      vertex 5.5 75.2322 8.23223
      vertex 5.5 77 7.5
      vertex 2.9375 77 7.5
    endloop
  endfacet
  facet normal -2.05142e-16 0.382683 0.92388
    outer loop
      vertex 2.87121 75.2322 8.23223
      vertex 5.5 75.2322 8.23223
      vertex 2.9375 77 7.5
    endloop
  endfacet
  facet normal 8.49728e-17 0.92388 -0.382683
    outer loop
      vertex 5.5 75.2322 11.7678
      vertex 5.5 74.5 10
      vertex 2.87121 75.2322 11.7678
    endloop
  endfacet
  facet normal 8.49728e-17 0.92388 -0.382683
    outer loop
      vertex 2.87121 75.2322 11.7678
      vertex 5.5 74.5 10
      vertex 2.84375 74.5 10
    endloop
  endfacet
  facet normal 2.05142e-16 0.382683 -0.92388
    outer loop
      vertex 5.5 77 12.5
      vertex 5.5 75.2322 11.7678
      vertex 2.9375 77 12.5
    endloop
  endfacet
  facet normal 2.05142e-16 0.382683 -0.92388
    outer loop
      vertex 2.9375 77 12.5
      vertex 5.5 75.2322 11.7678
      vertex 2.87121 75.2322 11.7678
    endloop
  endfacet
  facet normal 2.05142e-16 -0.382683 -0.92388
    outer loop
      vertex 5.5 78.7678 11.7678
      vertex 5.5 77 12.5
      vertex 3.00379 78.7678 11.7678
    endloop
  endfacet
  facet normal 2.05142e-16 -0.382683 -0.92388
    outer loop
      vertex 3.00379 78.7678 11.7678
      vertex 5.5 77 12.5
      vertex 2.9375 77 12.5
    endloop
  endfacet
  facet normal 8.49728e-17 -0.92388 -0.382683
    outer loop
      vertex 3.03125 79.5 10
      vertex 5.5 79.5 10
      vertex 5.5 78.7678 11.7678
    endloop
  endfacet
  facet normal 8.49728e-17 -0.92388 -0.382683
    outer loop
      vertex 3.00379 78.7678 11.7678
      vertex 3.03125 79.5 10
      vertex 5.5 78.7678 11.7678
    endloop
  endfacet
  facet normal -8.49728e-17 -0.92388 0.382683
    outer loop
      vertex 5.5 78.7678 8.23223
      vertex 5.5 79.5 10
      vertex 3.03125 79.5 10
    endloop
  endfacet
  facet normal -8.49728e-17 -0.92388 0.382683
    outer loop
      vertex 3.00379 78.7678 8.23223
      vertex 5.5 78.7678 8.23223
      vertex 3.03125 79.5 10
    endloop
  endfacet
  facet normal -2.05142e-16 -0.382683 0.92388
    outer loop
      vertex 5.5 77 7.5
      vertex 5.5 78.7678 8.23223
      vertex 3.00379 78.7678 8.23223
    endloop
  endfacet
  facet normal -2.05142e-16 -0.382683 0.92388
    outer loop
      vertex 2.9375 77 7.5
      vertex 5.5 77 7.5
      vertex 3.00379 78.7678 8.23223
    endloop
  endfacet
  facet normal -2.05142e-16 -0.382683 0.92388
    outer loop
      vertex -2.9375 77 7.5
      vertex -3.00379 78.7678 8.23223
      vertex -10 78.7678 8.23223
    endloop
  endfacet
  facet normal -2.05142e-16 -0.382683 0.92388
    outer loop
      vertex -10 77 7.5
      vertex -2.9375 77 7.5
      vertex -10 78.7678 8.23223
    endloop
  endfacet
  facet normal -8.49728e-17 -0.92388 0.382683
    outer loop
      vertex -3.00379 78.7678 8.23223
      vertex -3.03125 79.5 10
      vertex -10 79.5 10
    endloop
  endfacet
  facet normal -8.49728e-17 -0.92388 0.382683
    outer loop
      vertex -10 78.7678 8.23223
      vertex -3.00379 78.7678 8.23223
      vertex -10 79.5 10
    endloop
  endfacet
  facet normal 8.49728e-17 -0.92388 -0.382683
    outer loop
      vertex -10 79.5 10
      vertex -3.03125 79.5 10
      vertex -3.00379 78.7678 11.7678
    endloop
  endfacet
  facet normal 8.49728e-17 -0.92388 -0.382683
    outer loop
      vertex -10 78.7678 11.7678
      vertex -10 79.5 10
      vertex -3.00379 78.7678 11.7678
    endloop
  endfacet
  facet normal 2.05142e-16 -0.382683 -0.92388
    outer loop
      vertex -3.00379 78.7678 11.7678
      vertex -2.9375 77 12.5
      vertex -10 78.7678 11.7678
    endloop
  endfacet
  facet normal 2.05142e-16 -0.382683 -0.92388
    outer loop
      vertex -10 78.7678 11.7678
      vertex -2.9375 77 12.5
      vertex -10 77 12.5
    endloop
  endfacet
  facet normal 2.05142e-16 0.382683 -0.92388
    outer loop
      vertex -2.9375 77 12.5
      vertex -2.87121 75.2322 11.7678
      vertex -10 77 12.5
    endloop
  endfacet
  facet normal 2.05142e-16 0.382683 -0.92388
    outer loop
      vertex -10 77 12.5
      vertex -2.87121 75.2322 11.7678
      vertex -10 75.2322 11.7678
    endloop
  endfacet
  facet normal 8.49728e-17 0.92388 -0.382683
    outer loop
      vertex -2.87121 75.2322 11.7678
      vertex -2.84375 74.5 10
      vertex -10 75.2322 11.7678
    endloop
  endfacet
  facet normal 8.49728e-17 0.92388 -0.382683
    outer loop
      vertex -10 75.2322 11.7678
      vertex -2.84375 74.5 10
      vertex -10 74.5 10
    endloop
  endfacet
  facet normal -8.49728e-17 0.92388 0.382683
    outer loop
      vertex -2.87121 75.2322 8.23223
      vertex -10 75.2322 8.23223
      vertex -2.84375 74.5 10
    endloop
  endfacet
  facet normal -8.49728e-17 0.92388 0.382683
    outer loop
      vertex -2.84375 74.5 10
      vertex -10 75.2322 8.23223
      vertex -10 74.5 10
    endloop
  endfacet
  facet normal -2.05142e-16 0.382683 0.92388
    outer loop
      vertex -2.87121 75.2322 8.23223
      vertex -2.9375 77 7.5
      vertex -10 77 7.5
    endloop
  endfacet
  facet normal -2.05142e-16 0.382683 0.92388
    outer loop
      vertex -10 75.2322 8.23223
      vertex -2.87121 75.2322 8.23223
      vertex -10 77 7.5
    endloop
  endfacet
  facet normal 1 0 2.22045e-16
    outer loop
      vertex 5.5 72.5183 12.5875
      vertex 5.5 72.5183 7.4125
      vertex 5.5 77 4.825
    endloop
  endfacet
  facet normal 1 0 2.22045e-16
    outer loop
      vertex 5.5 75.2322 8.23223
      vertex 5.5 72.5183 12.5875
      vertex 5.5 77 4.825
    endloop
  endfacet
  facet normal 1 0 2.22045e-16
    outer loop
      vertex 5.5 77 15.175
      vertex 5.5 72.5183 12.5875
      vertex 5.5 81.4817 12.5875
    endloop
  endfacet
  facet normal 1 0 2.22045e-16
    outer loop
      vertex 5.5 81.4817 12.5875
      vertex 5.5 72.5183 12.5875
      vertex 5.5 77 12.5
    endloop
  endfacet
  facet normal 1 0 2.22045e-16
    outer loop
      vertex 5.5 81.4817 12.5875
      vertex 5.5 78.7678 11.7678
      vertex 5.5 81.4817 7.4125
    endloop
  endfacet
  facet normal 1 0 2.22045e-16
    outer loop
      vertex 5.5 81.4817 12.5875
      vertex 5.5 77 12.5
      vertex 5.5 78.7678 11.7678
    endloop
  endfacet
  facet normal 1 0 2.22045e-16
    outer loop
      vertex 5.5 78.7678 11.7678
      vertex 5.5 79.5 10
      vertex 5.5 81.4817 7.4125
    endloop
  endfacet
  facet normal 1 0 2.22045e-16
    outer loop
      vertex 5.5 81.4817 7.4125
      vertex 5.5 78.7678 8.23223
      vertex 5.5 77 4.825
    endloop
  endfacet
  facet normal 1 0 2.22045e-16
    outer loop
      vertex 5.5 78.7678 8.23223
      vertex 5.5 77 7.5
      vertex 5.5 77 4.825
    endloop
  endfacet
  facet normal 1 0 2.22045e-16
    outer loop
      vertex 5.5 77 7.5
      vertex 5.5 75.2322 8.23223
      vertex 5.5 77 4.825
    endloop
  endfacet
  facet normal 1 0 2.22045e-16
    outer loop
      vertex 5.5 74.5 10
      vertex 5.5 72.5183 12.5875
      vertex 5.5 75.2322 8.23223
    endloop
  endfacet
  facet normal 1 0 2.22045e-16
    outer loop
      vertex 5.5 74.5 10
      vertex 5.5 75.2322 11.7678
      vertex 5.5 72.5183 12.5875
    endloop
  endfacet
  facet normal 1 0 2.22045e-16
    outer loop
      vertex 5.5 77 12.5
      vertex 5.5 72.5183 12.5875
      vertex 5.5 75.2322 11.7678
    endloop
  endfacet
  facet normal 1 0 2.22045e-16
    outer loop
      vertex 5.5 79.5 10
      vertex 5.5 78.7678 8.23223
      vertex 5.5 81.4817 7.4125
    endloop
  endfacet
endsolid OpenSCAD_Model
